<svg width="16" height="16" viewBox="0 0 16 16" fill="none" xmlns="http://www.w3.org/2000/svg">
<path d="M14.2859 16.0001H5.143C4.68849 15.9996 4.25275 15.8189 3.93136 15.4975C3.60998 15.1761 3.42921 14.7404 3.42871 14.2859V5.143C3.42921 4.68849 3.60998 4.25275 3.93136 3.93136C4.25275 3.60998 4.68849 3.42921 5.143 3.42871H14.2859C14.7404 3.42921 15.1761 3.60998 15.4975 3.93136C15.8189 4.25275 15.9996 4.68849 16.0001 5.143V14.2859C15.9996 14.7404 15.8189 15.1761 15.4975 15.4975C15.1761 15.8189 14.7404 15.9996 14.2859 16.0001ZM5.143 4.57157C4.99147 4.57166 4.84618 4.63189 4.73904 4.73904C4.63189 4.84618 4.57166 4.99147 4.57157 5.143V14.2859C4.57166 14.4374 4.63189 14.5827 4.73904 14.6898C4.84618 14.797 4.99147 14.8572 5.143 14.8573H14.2859C14.4374 14.8572 14.5827 14.797 14.6898 14.6898C14.797 14.5827 14.8572 14.4374 14.8573 14.2859V5.143C14.8572 4.99147 14.797 4.84618 14.6898 4.73904C14.5827 4.63189 14.4374 4.57166 14.2859 4.57157H5.143Z" fill="white"/>
<path d="M1.71429 12.5714C1.25978 12.5709 0.824037 12.3902 0.502654 12.0688C0.181271 11.7474 0.000499131 11.3116 0 10.8571V1.71429C0.000499131 1.25978 0.181271 0.824037 0.502654 0.502654C0.824037 0.181271 1.25978 0.000499131 1.71429 0H10.8571C11.3116 0.000499131 11.7474 0.181271 12.0688 0.502654C12.3902 0.824037 12.5709 1.25978 12.5714 1.71429C12.5714 1.86584 12.5112 2.01118 12.4041 2.11835C12.2969 2.22551 12.1516 2.28571 12 2.28571C11.8484 2.28571 11.7031 2.22551 11.5959 2.11835C11.4888 2.01118 11.4286 1.86584 11.4286 1.71429C11.4285 1.56276 11.3682 1.41747 11.2611 1.31033C11.154 1.20318 11.0087 1.14295 10.8571 1.14286H1.71429C1.56276 1.14295 1.41747 1.20318 1.31033 1.31033C1.20318 1.41747 1.14295 1.56276 1.14286 1.71429V10.8571C1.14295 11.0087 1.20318 11.154 1.31033 11.2611C1.41747 11.3682 1.56276 11.4285 1.71429 11.4286C1.86584 11.4286 2.01118 11.4888 2.11835 11.5959C2.22551 11.7031 2.28571 11.8484 2.28571 12C2.28571 12.1516 2.22551 12.2969 2.11835 12.4041C2.01118 12.5112 1.86584 12.5714 1.71429 12.5714Z" fill="white"/>
</svg>
