<svg width="16" height="16" viewBox="0 0 16 16" fill="none" xmlns="http://www.w3.org/2000/svg">
<path d="M9.69744 3.0754L11.0891 1.67482C11.3004 1.46105 11.5522 1.29129 11.83 1.17544C12.1078 1.05958 12.406 0.999948 12.7071 1H12.713C13.1651 1.00024 13.6071 1.13394 13.9831 1.38422C14.359 1.63451 14.6521 1.99016 14.8254 2.40627C14.9986 2.82239 15.0442 3.28031 14.9565 3.72224C14.8687 4.16417 14.6515 4.57029 14.3323 4.88933L12.9252 6.29121L9.69744 3.0754ZM8.54912 4.22867L1.12414 11.704C1.04448 11.784 0.999846 11.8922 1 12.0049V14.5721C0.999968 14.6283 1.01105 14.684 1.03262 14.7359C1.0542 14.7878 1.08583 14.835 1.12571 14.8748C1.1656 14.9145 1.21296 14.946 1.26508 14.9675C1.3172 14.989 1.37306 15 1.42946 15H4.00625C4.06265 15 4.11849 14.9889 4.1706 14.9674C4.2227 14.9459 4.27004 14.9144 4.3099 14.8746L11.7722 7.43988L8.54912 4.22867Z" fill="white"/>
</svg>
