<svg width="16" height="16" viewBox="0 0 16 16" fill="none" xmlns="http://www.w3.org/2000/svg">
<path d="M15.4756 3.33617L9.74199 9.59797V14.2969C9.74241 14.4379 9.7034 14.5756 9.63022 14.6916C9.55704 14.8075 9.4532 14.8962 9.33267 14.9455L6.86102 15.9564C6.76586 15.9953 6.6635 16.0085 6.56268 15.9947C6.46187 15.9809 6.3656 15.9406 6.28208 15.8772C6.19856 15.8139 6.13028 15.7293 6.08306 15.6307C6.03584 15.5321 6.01108 15.4225 6.0109 15.3112V9.58762L0.500863 3.30512C0.257633 3.02984 0.0938369 2.68212 0.0299464 2.30541C-0.0339441 1.9287 0.00490421 1.53972 0.141636 1.18706C0.278369 0.834412 0.50692 0.533735 0.798729 0.32261C1.09054 0.111484 1.43266 -0.000725414 1.78234 3.5291e-06H14.2193C14.5719 0.00030609 14.9166 0.115241 15.2096 0.33026C15.5026 0.545279 15.7308 0.850715 15.8653 1.20791C15.9998 1.5651 16.0345 1.95799 15.9652 2.33684C15.8958 2.71569 15.7254 3.06348 15.4756 3.33617Z" fill="#6550F6"/>
</svg>
