<svg width="933" height="900" viewBox="0 0 933 900" fill="none" xmlns="http://www.w3.org/2000/svg">
<path d="M268.033 -0.0140762H338.5H383L441 -0.0141602L605.5 -0.0139923L771.5 -0.0140247L933 -0.0140846V40.4994V110.998V274.496V468.993V640.49V732.988V803.987V847.487V899.986H868.5H803.5H712H480.5H229.5H31.2952C31.2952 899.986 4.92208 876.486 0.821268 832.198C-5.08334 768.429 20.8678 696.17 78.1308 662.237C144.215 623.077 232.207 599.052 274.483 530.002C293.963 498.185 279.794 455.414 259.041 427.478C241.274 403.562 213.614 407.081 190.5 385.994C159.281 357.512 126.224 336.451 132.472 294.657C136.411 268.313 148.744 252.541 169.514 237.384C194.832 218.909 226.33 211.992 253.959 198.29L254.291 198.125C273.889 188.407 297.744 176.577 297.744 152.159C297.744 129.274 283.648 112.622 269.694 95.1797C253.93 75.4746 238.266 58.1348 243.208 31.7498C247 11.4998 268.033 -0.0140762 268.033 -0.0140762Z" fill="#6550F6"/>
<ellipse cx="567.5" cy="783.488" rx="305.5" ry="46.4993" fill="#5640EA"/>
<path d="M111 82.999C100.519 88.9254 89.5967 94.2379 79 99.999" stroke="#F3B63F" stroke-width="5" stroke-linecap="round" stroke-linejoin="round"/>
<path d="M781 495.992C770.519 501.919 759.597 507.231 749 512.992" stroke="#F3B63F" stroke-width="5" stroke-linecap="round" stroke-linejoin="round"/>
<path d="M862.831 538.991C860.133 545.872 856.988 552.631 854.172 559.477" stroke="#F3B63F" stroke-width="5" stroke-linecap="round" stroke-linejoin="round"/>
<path d="M338.32 236.656C344.688 228.727 351.54 221.146 357.431 212.996" stroke="#F3B63F" stroke-width="5" stroke-linecap="round" stroke-linejoin="round"/>
<path d="M758.32 754.648C764.688 746.72 771.54 739.138 777.431 730.989" stroke="#F3B63F" stroke-width="5" stroke-linecap="round" stroke-linejoin="round"/>
<path d="M93.7104 339.887C99.7695 345.505 112.112 361.248 121.68 361.304" stroke="#8979FE" stroke-width="5" stroke-linecap="round" stroke-linejoin="round"/>
<path d="M805 370.244C809.982 374.713 820.187 387.297 827.936 387.214" stroke="#8979FE" stroke-width="5" stroke-linecap="round" stroke-linejoin="round"/>
<path d="M213.081 162.788C209.64 153.191 205.809 140.266 207.519 129.998" stroke="#8979FE" stroke-width="5" stroke-linecap="round" stroke-linejoin="round"/>
<path d="M705 250.266C713.133 244.119 724.326 236.607 734.638 235.177" stroke="#8979FE" stroke-width="5" stroke-linecap="round" stroke-linejoin="round"/>
<path d="M867.154 673.369C854.698 665.249 838.855 653.604 831.794 640.163" stroke="#8979FE" stroke-width="5" stroke-linecap="round" stroke-linejoin="round"/>
<path d="M193 260.996C203.026 259.297 213.183 258.178 223 255.996" stroke="#F3B63F" stroke-width="5" stroke-linecap="round" stroke-linejoin="round"/>
<path d="M396 136.148C405.27 140.33 414.324 145.066 423.689 148.731" stroke="#8979FE" stroke-width="5" stroke-linecap="round" stroke-linejoin="round"/>
<path fill-rule="evenodd" clip-rule="evenodd" d="M202.752 657.275C204.806 693.934 214.63 717.255 227.311 734.521C252.137 768.353 292.77 786.303 336.261 789.442C410.829 791.375 485.397 793.31 559.965 795.246C606.402 791.353 649.67 774.475 684.096 744.791C706.109 725.801 744.063 674.837 757.771 596.997C765.183 554.931 752.993 484.338 737.678 407.231C735.534 396.457 714.995 321.024 680.077 269.26C663.378 244.479 645.249 226.569 620.244 217.465C599.303 209.843 573.985 208.727 539.425 219.251C428.912 252.895 325.366 377.413 260.799 475.1C242.716 502.467 197.93 572.131 202.752 657.275Z" fill="white"/>
<path d="M589 481.589C591.934 477.025 595.219 472.695 598.823 468.64C605.585 461.016 613.404 454.4 622.042 448.993" stroke="#ADADAD" stroke-width="2" stroke-linecap="round"/>
<path fill-rule="evenodd" clip-rule="evenodd" d="M470.661 175.493V183.53C470.622 189.109 469.872 194.661 468.429 200.051C467.298 204.409 465.326 208.505 462.624 212.106C461.418 213.723 458.695 216.424 456.373 218.804C454.993 220.26 453.5 221.604 451.908 222.823C449.823 224.395 447.578 225.742 445.21 226.841C446.996 232.557 449.898 237.428 454.006 241.134C468.741 254.333 493.88 248.256 507.945 240.603C515.747 236.333 522.527 230.419 527.815 223.269C523.71 221.169 519.947 218.459 516.652 215.232C510.312 209.008 507.32 203.172 505.936 198.265C505.167 195.497 504.717 192.651 504.596 189.781C504.444 186.648 504.593 183.508 505.043 180.404C505.847 175.002 506.829 169.139 507.722 164.777C508.615 160.37 509.374 155.958 509.955 151.381C496.872 159.418 483.774 167.456 470.661 175.493Z" fill="#FBC0AD"/>
<path fill-rule="evenodd" clip-rule="evenodd" d="M462.58 179.427C468.831 179.32 472.581 181.084 472.894 183.084C473.073 184.214 472.135 185.46 470.661 186.656C470.751 188.292 470.751 189.932 470.661 191.568C470.594 192.915 470.445 194.257 470.215 195.587C469.985 196.793 469.687 197.986 469.322 199.159C473.937 199.446 478.559 198.703 482.852 196.984C496.515 191.416 505.311 175.69 506.383 156.74C491.782 164.304 477.181 171.866 462.58 179.427Z" fill="#F6987A"/>
<path d="M471.661 183.537V183.53V176.053C484.016 168.48 496.357 160.907 508.685 153.335C508.151 157.147 507.495 160.862 506.742 164.577C505.844 168.964 504.859 174.846 504.054 180.257L504.053 180.261C503.595 183.427 503.442 186.631 503.597 189.826C503.722 192.771 504.183 195.693 504.973 198.533L504.974 198.536C506.407 203.619 509.493 209.606 515.952 215.946L515.953 215.946C519.036 218.967 522.521 221.544 526.309 223.605C521.214 230.221 514.799 235.712 507.466 239.725C500.537 243.495 490.87 246.878 481.144 247.691C471.411 248.504 461.761 246.737 454.674 240.39C450.918 237 448.188 232.58 446.431 227.365C448.57 226.311 450.605 225.058 452.51 223.621L452.515 223.617C454.148 222.367 455.679 220.989 457.094 219.497C457.455 219.127 457.828 218.746 458.207 218.361C460.219 216.312 462.366 214.124 463.424 212.706C466.204 209.001 468.232 204.789 469.396 200.306C470.86 194.835 471.621 189.2 471.661 183.537Z" stroke="#D9613B" stroke-width="2"/>
<path fill-rule="evenodd" clip-rule="evenodd" d="M480.217 99.9306C492.284 101.436 498.927 105.873 502.995 110.596C507.326 115.76 509.804 122.191 510.045 128.888C510.931 128.539 511.836 128.241 512.757 127.997C513.787 127.71 514.85 127.56 515.92 127.551C517.572 127.696 519.143 128.315 520.44 129.333C522.067 130.589 523.423 132.585 524.056 135.57C524.43 137.338 524.423 139.165 524.033 140.93C523.644 142.696 522.881 144.361 521.796 145.816C520.465 147.504 518.766 148.874 516.824 149.826C514.993 150.77 513.002 151.374 510.949 151.608C510.595 154.329 509.99 157.013 509.141 159.626C507.605 164.375 504.938 169.463 500.554 174.773C497.962 178.001 494.919 180.851 491.515 183.237C488.18 185.525 484.527 187.326 480.669 188.583C475.579 189.885 470.202 189.573 465.302 187.692C463.178 186.855 459.563 184.663 456.263 181.455C452.787 178.003 450.024 173.918 448.128 169.427C445.01 162.264 444.513 154.044 444.513 151.162C444.513 145.58 444.422 137.873 444.513 134.679C444.603 130.522 444.603 126.433 444.513 122.205C444.739 116.953 446.501 112.079 449.936 108.395C451.88 106.301 454.456 104.617 458.523 103.049C467.201 99.7034 474.341 99.1956 480.217 99.9306Z" fill="#FBC0AD" stroke="#D9613B" stroke-width="2" stroke-linecap="round"/>
<path d="M466.806 136.998C467.037 139.444 467.061 141.901 466.881 144.35C466.731 145.742 466.393 146.776 465.98 147.354C465.154 148.516 464.065 148.742 463.089 149.858C462.469 150.477 462.088 151.251 462 152.07C462.075 153.262 463.052 154.325 464.178 154.998" stroke="#D9613B" stroke-width="2" stroke-linecap="round"/>
<path d="M451.23 129.804C452.315 129.096 453.544 128.641 454.828 128.473C456.274 128.185 457.768 128.248 459.185 128.656" stroke="#363D48" stroke-width="3" stroke-linecap="round"/>
<path fill-rule="evenodd" clip-rule="evenodd" d="M455.501 133.998C456.907 133.998 458 135.562 458 137.495C458 139.428 456.907 140.998 455.501 140.998C454.146 140.998 453 139.428 453 137.495C453 135.562 454.146 133.998 455.501 133.998Z" fill="black"/>
<path fill-rule="evenodd" clip-rule="evenodd" d="M481.501 133.998C482.907 133.998 484 135.562 484 137.495C484 139.428 482.907 140.998 481.501 140.998C480.146 140.998 479 139.428 479 137.495C479 135.562 480.146 133.998 481.501 133.998Z" fill="black"/>
<path d="M478.416 128.507C479.772 128.024 481.27 127.912 482.728 128.188C484.598 128.482 486.289 129.211 487.24 130.11" stroke="#363D48" stroke-width="3" stroke-linecap="round"/>
<path fill-rule="evenodd" clip-rule="evenodd" d="M202.752 657.275C202.752 685.254 210.968 712.223 227.31 734.521C236.642 747.251 249.145 758.95 264.818 768.456C277.275 776.011 304.022 785.986 335.367 788.995C340.145 789.455 344.833 789.745 349.655 789.888L559.964 795.246C606.893 791.701 651.455 774.645 685.435 743.005C702.492 727.105 718.209 705.905 731.426 679.154C736.516 668.858 741.607 655.806 746.161 642.094C751.608 625.734 755.895 609.544 757.77 596.997C760.137 581.181 760.494 560.218 758.663 537.611C757.86 527.779 756.341 516.911 754.645 505.909C751.966 488.437 748.438 464.665 746.607 454.114C743.794 437.745 740.222 417.621 737.677 407.231C732.051 384.285 722.987 357.802 711.779 330.431C706.264 316.85 700.004 303.583 693.026 290.692C688.828 282.968 684.587 275.904 680.077 269.26C668.691 252.52 655.608 238.853 646.588 232.2C638.458 226.205 629.607 221.254 620.244 217.465C635.711 229.969 649.383 244.543 660.877 260.776C684.676 294.456 694.499 328.619 700.17 365.259C723.031 512.357 687.623 614.929 659.537 644.327C629.219 676.056 588.764 696.014 542.55 705.052C495.621 711.307 436.413 718.197 382.251 724.252C327.464 730.373 264.46 736.289 225.971 696.568C215.299 685.575 207.708 672.274 202.752 657.275Z" fill="#F0F0F0"/>
<path d="M203.751 657.219L203.751 657.219C198.949 572.43 243.555 503.01 261.634 475.651C293.893 426.844 335.879 371.352 383.588 323.868C431.309 276.373 484.685 236.961 539.716 220.208L539.425 219.251L539.716 220.208C574.116 209.732 599.206 210.872 619.902 218.405C644.63 227.408 662.609 245.128 679.248 269.819L679.248 269.819C696.642 295.604 710.473 327.318 720.229 353.96C729.985 380.605 735.639 402.105 736.697 407.426C744.354 445.978 751.224 482.872 755.255 515.378C759.288 547.902 760.465 575.944 756.786 596.823L757.771 596.997L756.786 596.823C743.117 674.443 705.276 725.199 683.443 744.034C649.206 773.555 606.164 790.359 559.935 794.245C485.393 792.31 410.851 790.376 336.31 788.443C293.04 785.315 252.723 767.462 228.117 733.93L227.311 734.521L228.117 733.929C215.563 716.836 205.795 693.706 203.751 657.219Z" stroke="#ADADAD" stroke-width="2"/>
<path fill-rule="evenodd" clip-rule="evenodd" d="M462.003 162.998C462.003 162.998 466.241 162.998 469 162.998C471.759 162.998 475.997 162.998 475.997 162.998C476.026 163.906 475.866 164.812 475.528 165.66C475.189 166.508 474.678 167.281 474.026 167.934C473.373 168.587 472.592 169.106 471.729 169.46C470.865 169.815 469.938 169.998 469 169.998C468.062 169.998 467.134 169.815 466.271 169.46C465.407 169.106 464.626 168.587 463.973 167.934C463.321 167.281 462.81 166.508 462.472 165.66C462.133 164.812 461.974 163.906 462.003 162.998Z" fill="white"/>
<path fill-rule="evenodd" clip-rule="evenodd" d="M451.477 142.998C455.101 142.998 458 145.909 458 149.498C458 153.086 455.101 155.998 451.477 155.998C447.899 155.998 445 153.086 445 149.498C445 145.909 447.899 142.998 451.477 142.998Z" fill="#F6987A"/>
<path fill-rule="evenodd" clip-rule="evenodd" d="M485.024 142.998C488.878 142.998 492 145.909 492 149.498C492 153.086 488.878 155.998 485.024 155.998C481.171 155.998 478 153.086 478 149.498C478 145.909 481.171 142.998 485.024 142.998Z" fill="#F6987A"/>
<path d="M129.371 747.366C123.87 747.087 118.37 746.809 112.901 746.532C116.757 729.541 120.612 712.549 124.468 695.556C131.212 697.258 137.946 698.96 144.681 700.662L144.683 700.663C151.274 702.329 157.864 703.995 164.464 705.661C155.398 718.38 149.144 732.886 146.121 748.214C140.559 747.933 134.965 747.649 129.371 747.366Z" fill="#FBC0AD" stroke="#D9613B" stroke-width="2"/>
<path d="M140.501 783.899L140.501 783.899C143.03 787.233 145.076 790.905 146.58 794.808C150.827 794.424 155.074 794.043 159.322 793.662C161.683 784.477 161.925 774.871 160.026 765.574C158.115 756.214 154.085 747.419 148.25 739.862C137.067 740.282 125.855 740.701 114.615 741.121C103.797 745.902 91.5966 752.196 81.575 759.366C71.4491 766.611 63.7583 774.605 61.7304 782.675L140.501 783.899ZM140.501 783.899L140.493 783.889M140.501 783.899L140.493 783.889M140.493 783.889C139.837 783.047 139.196 782.306 138.527 781.778C137.844 781.238 137.065 780.868 136.156 780.888C134.841 780.915 133.761 781.726 132.914 782.732C132.055 783.753 131.303 785.128 130.65 786.628C129.446 789.391 128.496 792.769 127.826 795.647C109.252 796.338 90.6918 797.032 72.1463 797.729C67.7278 797.562 63.8111 795.94 62.0472 792.593L62.0473 792.593M140.493 783.889L62.0473 792.593M62.0473 792.593L62.043 792.585M62.0473 792.593L62.043 792.585M62.043 792.585C60.9522 790.559 60.5158 787.517 61.7304 782.676L62.043 792.585Z" fill="#363D48" stroke="black" stroke-width="2"/>
<path fill-rule="evenodd" clip-rule="evenodd" d="M225.971 566.634C225.212 606.936 215.746 645.822 197.394 680.94C189.618 695.836 180.342 709.899 169.711 722.912C154.172 722.523 139.169 718.969 125.506 712.196C120.354 709.633 115.426 706.646 110.771 703.265C111.753 687.097 113.226 671.38 115.236 655.489C121.119 609.388 133.757 564.404 152.743 521.983C160.512 504.641 170.559 487.892 188.464 472.867C205.834 458.311 223.426 452.033 236.688 447.863C297.012 428.917 360.328 419.844 389.842 421.072C402.547 421.601 415.216 422.793 427.796 424.644C445.969 434.914 464.128 445.184 482.271 455.453C396.853 492.514 311.42 529.574 225.971 566.634Z" fill="#FA6678"/>
<path fill-rule="evenodd" clip-rule="evenodd" d="M225.971 566.634C225.212 606.936 215.746 645.823 197.394 680.94C189.618 695.836 180.342 709.9 169.71 722.912L152.296 720.233C189.875 664.742 208.942 598.789 206.771 531.807C224.899 515.978 242.983 500.542 261.692 484.923C303.531 449.953 348.87 471.881 399.192 470.108C411.944 469.675 443.552 452.649 455.999 455.454C474.172 465.723 464.127 445.184 482.271 455.454C396.852 492.514 311.419 529.574 225.971 566.634Z" fill="#F65468"/>
<path fill-rule="evenodd" clip-rule="evenodd" d="M225.971 566.634C225.212 606.936 215.746 645.822 197.394 680.94C189.618 695.836 180.342 709.899 169.711 722.912C154.172 722.523 139.169 718.969 125.506 712.196C120.354 709.633 115.426 706.646 110.771 703.265C111.753 687.097 113.226 671.38 115.236 655.489C121.119 609.388 133.757 564.404 152.743 521.983C160.512 504.641 170.559 487.892 188.464 472.867C205.834 458.311 223.426 452.033 236.688 447.863C297.012 428.917 360.328 419.844 389.842 421.072C402.547 421.601 415.216 422.793 427.796 424.644C445.969 434.914 464.128 445.184 482.271 455.453C396.853 492.514 311.42 529.574 225.971 566.634Z" stroke="#AE1E2F" stroke-width="2" stroke-linecap="round"/>
<path fill-rule="evenodd" clip-rule="evenodd" d="M518.706 137.085C518.304 136.017 517.144 135.607 516.608 135.486C515.938 135.343 514.197 135.656 512.321 137.085C511.194 137.926 510.277 139.017 509.642 140.273C509.017 141.487 508.927 142.438 509.106 142.934C509.243 143.3 509.458 143.631 509.736 143.907C510.013 144.182 510.346 144.394 510.713 144.528C513.08 145.448 515.982 142.693 517.143 141.34C518.751 139.366 519.063 137.888 518.706 137.085Z" fill="#F6987A"/>
<path d="M509.643 140.804C510.138 139.321 511.072 138.024 512.322 137.085C513.71 136.036 515.404 135.474 517.144 135.486" stroke="#D9613B" stroke-width="2" stroke-linecap="round"/>
<path d="M313.588 719.85C315.507 727.697 318.134 735.354 321.436 742.724C310.546 744.96 299.655 747.194 288.764 749.426C287.437 744.418 285.868 739.477 284.062 734.62L284.062 734.619C281.321 727.256 278.059 720.097 274.301 713.198C280.335 711.095 286.36 708.992 292.385 706.889C298.377 704.797 304.369 702.706 310.37 700.614C310.966 707.096 312.042 713.526 313.588 719.85Z" fill="#FBC0AD" stroke="#D9613B" stroke-width="2"/>
<path d="M322.587 779.276L322.582 779.273C321.742 778.625 320.934 778.073 320.144 777.735C319.333 777.388 318.478 777.241 317.593 777.49L317.593 777.49L317.582 777.494C316.327 777.864 315.502 778.929 314.951 780.117C314.39 781.325 314.024 782.846 313.783 784.464C313.339 787.443 313.296 790.948 313.397 793.9C295.615 799.376 277.862 804.853 260.138 810.332C255.848 811.306 251.618 810.756 249.028 807.981C247.468 806.304 246.258 803.476 246.171 798.485C246.044 790.162 251.401 780.451 259.306 770.831C267.129 761.311 277.285 752.072 286.505 744.65C297.221 741.347 307.936 738.044 318.652 734.739C326.245 740.528 332.415 747.979 336.687 756.523C340.932 765.011 343.189 774.35 343.294 783.833C339.287 785.304 335.279 786.773 331.272 788.241C328.807 784.866 325.884 781.849 322.587 779.276Z" fill="#363D48" stroke="black" stroke-width="2"/>
<path fill-rule="evenodd" clip-rule="evenodd" d="M583.183 421.965C587.304 428.313 590.463 435.234 592.56 442.505C596.489 456.226 595.864 468.362 594.346 474.653C591.444 486.638 584.434 497.157 574.699 505.016C560.494 507.292 546.467 510.574 532.727 514.839C525.739 516.967 518.88 519.502 512.187 522.43C497.506 529.073 483.949 537.961 472.001 548.774C425.718 554.455 378.895 554.155 332.688 547.881C329.767 547.262 326.75 547.26 323.828 547.875C320.906 548.49 318.144 549.709 315.721 551.453C309.291 556.172 306.389 564.026 307.237 571.546C311.523 598.742 316.703 631.753 320.632 651.024C322.017 657.784 324.83 675.077 324.651 689.87C324.563 696.29 324.116 702.7 323.311 709.07C305.452 717.862 286.026 723.022 266.158 724.251C261.051 718.696 256.421 712.722 252.316 706.391C245.618 696.054 240.17 683.159 238.027 677.368C225.167 642.237 214.139 610.383 206.324 568.42C201.145 540.576 198.912 512.374 215.701 488.942C223.962 477.39 235.616 468.813 249.636 463.044C331.929 467.188 413.641 461.146 493.88 444.737C524.02 438.575 553.713 430.998 583.183 421.965Z" fill="#FA6678"/>
<path fill-rule="evenodd" clip-rule="evenodd" d="M583.183 421.965C587.303 428.313 590.463 435.234 592.56 442.505C596.489 456.226 595.864 468.362 594.346 474.653C591.443 486.638 584.433 497.157 574.699 505.016C560.493 507.292 546.467 510.574 532.727 514.839C525.738 516.967 518.88 519.502 512.187 522.43C497.506 529.073 483.948 537.961 472.001 548.774C425.717 554.455 378.895 554.155 332.688 547.881C329.767 547.262 326.749 547.26 323.827 547.875C320.906 548.49 318.144 549.709 315.72 551.453C309.291 556.172 306.388 564.026 307.237 571.546C311.523 598.742 316.703 631.753 320.632 651.024C322.016 657.784 324.829 675.077 324.651 689.87C324.563 696.29 324.116 702.7 323.311 709.07L307.237 715.768C306.656 703.449 305.763 691.424 304.557 679.154C301.341 646.832 295.971 614.761 288.483 583.155C283.75 565.763 283.973 550.658 291.609 539.843C307.817 516.835 349.879 524.077 400.558 525.109C488.879 526.908 540.005 505.739 555.499 481.797C563.536 469.416 567.064 454.851 567.108 438.933C572.467 433.277 577.825 427.621 583.183 421.965Z" fill="#F65468"/>
<path d="M511.787 521.513L511.775 521.519C497.096 528.161 483.533 537.033 471.565 547.82C425.481 553.45 378.865 553.139 332.859 546.895C329.813 546.255 326.668 546.255 323.622 546.897C320.564 547.54 317.673 548.816 315.137 550.641L315.129 550.647C308.379 555.601 305.359 563.823 306.243 571.658L306.246 571.68L306.249 571.701L306.571 573.744C310.791 600.524 315.816 632.406 319.653 651.224L319.653 651.225C321.03 657.953 323.828 675.166 323.651 689.857C323.566 696.06 323.144 702.253 322.386 708.41C304.922 716.93 285.963 721.961 266.572 723.223C261.631 717.809 257.143 711.998 253.155 705.847C246.514 695.598 241.096 682.78 238.965 677.022C226.111 641.904 215.106 610.114 207.308 568.237C202.13 540.405 199.989 512.588 216.514 489.524L216.515 489.523C224.608 478.206 236.026 469.763 249.811 464.054C332.11 468.18 413.831 462.128 494.081 445.717C524.005 439.599 553.489 432.088 582.751 423.143C586.619 429.233 589.599 435.846 591.599 442.78C595.482 456.342 594.85 468.302 593.374 474.419C590.548 486.087 583.747 496.357 574.277 504.071C560.115 506.352 546.132 509.631 532.433 513.883C525.408 516.023 518.514 518.571 511.787 521.513Z" stroke="#AE1E2F" stroke-width="2"/>
<path fill-rule="evenodd" clip-rule="evenodd" d="M467.536 203.177C472.651 205.217 478.104 206.278 483.611 206.302C491.626 206.312 499.495 204.152 506.383 200.051C508.466 205.532 511.835 210.432 516.206 214.34C522.368 219.827 530.271 222.095 533.174 222.823C545.497 225.94 561.215 231.195 573.807 238.451C578.376 241.043 582.709 244.031 586.755 247.381C600.91 259.348 607.876 274.73 611.314 282.655C623.861 311.62 633.506 334.004 642.123 364.366C643.954 370.85 647.616 383.722 642.57 397.854C639.4 406.807 633.774 413.585 624.709 421.073C611.523 431.89 596.569 440.349 580.504 446.077C570.77 449.596 557.063 453.074 543.355 455.9C523.842 459.941 507.812 461.321 494.327 459.473C486.727 458.425 479.249 456.63 472.001 454.114C460.481 447.39 449.407 440.308 438.512 432.682C434.717 430.034 431.056 427.395 427.35 424.645C426.099 419.948 425.028 415.188 424.224 410.357C422.75 401.708 422.527 394.555 421.991 385.799C421.5 378.012 420.607 370.123 419.312 362.134C409.087 369.162 398.862 376.127 388.503 383.12C360.73 401.882 344.655 411.866 325.991 408.571C303.084 404.53 285.983 383.941 275.981 360.794C314.113 332.588 349.209 302.525 370.196 274.172C378.813 262.549 392.387 242.059 417.08 233.093C421.545 231.477 435.164 226.811 444.317 223.716C447.22 222.729 455.034 219.693 460.838 213.447C463.638 210.428 465.903 206.955 467.536 203.177Z" fill="#F3B63F"/>
<path fill-rule="evenodd" clip-rule="evenodd" d="M611.314 282.655C623.906 310.986 636.631 343.992 642.124 364.366C645.16 375.613 646.633 386.423 642.57 397.854C639.4 406.806 633.774 413.584 624.709 421.072C611.524 431.889 596.569 440.348 580.504 446.077C570.77 449.595 557.063 453.074 543.355 455.9C524.021 459.905 507.097 461.053 494.327 459.472C487.216 458.59 480.195 457.096 473.341 455.007C473.698 453.225 474.011 451.453 474.234 449.649C474.457 447.863 474.591 446.09 474.68 444.291C488.31 446.037 502.096 446.187 515.76 444.737C535.54 442.625 560.411 435.919 588.542 419.733C611.582 406.463 624.129 391.956 627.835 381.333C631.898 369.76 630.961 359.454 629.175 349.185C625.647 328.766 618.905 304.721 611.314 282.655Z" fill="#F29E20"/>
<path d="M600.22 264.279C591.741 274.252 581.624 282.708 570.304 289.283C554.408 298.424 527.885 310.319 514.936 299.553C511.676 296.843 507.166 290.967 508.685 285.711C512.123 273.713 547.308 276.107 569.857 260.706C575.451 256.884 580.55 252.385 585.039 247.311" stroke="#FFCD6A" stroke-width="2" stroke-linecap="round"/>
<path d="M615.716 296.363C601.08 308.079 584.602 317.203 566.976 323.353C535.738 334.225 503.127 337.212 474.813 327.851C448.272 319.066 437.549 301.86 407.906 294.564C390.448 290.263 372.592 290.587 354.735 294.564" stroke="#FFCD6A" stroke-width="2" stroke-linecap="round"/>
<path fill-rule="evenodd" clip-rule="evenodd" d="M420.186 360.613C413.488 365.288 405.961 371.385 399.219 375.975C390.289 382.039 381.448 387.928 372.428 393.835C363.632 389.37 354.88 384.905 346.083 380.44C365.016 374.689 381.849 364.594 395.2 350.524C400.846 344.559 406.984 336.419 411.13 329.329C414.255 339.747 417.06 350.194 420.186 360.613Z" fill="#F29E20"/>
<path d="M641.677 365.705C628.996 364.469 617.386 371.26 612.653 381.78C607.027 394.336 612.073 410.272 625.156 417.948" stroke="#FFCD6A" stroke-width="2" stroke-linecap="round"/>
<path d="M626.419 322.243C609.648 338.196 590.576 350.66 569.779 359.188C535.883 373.08 497.209 379.361 463.579 367.645C452.162 363.666 428.311 348.656 407.381 335.151C399.328 329.957 380.433 317.703 355.166 318.682C340.564 319.247 326.492 324.126 313.571 332.481" stroke="#FFCD6A" stroke-width="2" stroke-linecap="round"/>
<path d="M603.276 434.915C585.728 422.689 567.57 415.248 548.802 412.589C520.046 408.571 497.542 420.698 466.643 412.589C450.166 408.263 435.61 399.515 422.884 387.584" stroke="#FFCD6A" stroke-width="2" stroke-linecap="round"/>
<path d="M539.802 225.879C530.036 228.934 519.765 230.04 509.573 229.134C496.892 227.955 487.157 222.709 484.434 220.074C480.672 216.355 477.908 211.748 476.396 206.679" stroke="#FFCD6A" stroke-width="2" stroke-linecap="round"/>
<path d="M566.319 235.759C550.424 242.994 533.549 247.954 516.212 250.488C488.727 254.441 463.871 249.483 455.586 245.74C446.527 241.59 438.302 235.883 431.3 228.89" stroke="#FFCD6A" stroke-width="2" stroke-linecap="round"/>
<path d="M415.224 281.901C410.714 291.792 408.347 302.124 408.526 312.71C408.705 322.761 411.116 329.481 414.331 339.947C416.429 346.859 418.349 353.749 420.135 360.933" stroke="#C2771E" stroke-width="2" stroke-linecap="round"/>
<path d="M505.882 201.496C499.085 205.309 491.415 207.312 483.609 207.302L483.606 207.302C478.294 207.279 473.031 206.313 468.061 204.452C466.419 207.995 464.23 211.26 461.571 214.127L461.571 214.127C455.594 220.559 447.587 223.661 444.639 224.663L444.637 224.664C435.482 227.758 421.875 232.42 417.421 234.033C394.823 242.238 381.655 260.224 372.954 272.108C372.276 273.034 371.625 273.922 370.999 274.767C370.999 274.767 370.999 274.767 370.999 274.767L370.196 274.172C349.209 302.525 314.113 332.588 275.981 360.794L505.882 201.496ZM505.882 201.496C508.042 206.687 511.341 211.332 515.54 215.085L515.541 215.086C521.89 220.74 529.989 223.055 532.928 223.793C545.207 226.898 560.827 232.126 573.307 239.317L573.313 239.321C577.83 241.883 582.114 244.837 586.115 248.149C600.077 259.955 606.967 275.148 610.396 283.053C622.944 312.019 632.564 334.348 641.161 364.639L641.168 364.661C642.999 371.147 646.552 383.728 641.628 397.518L641.627 397.521C638.54 406.238 633.061 412.876 624.075 420.3C610.978 431.044 596.124 439.446 580.168 445.135L580.164 445.137C570.496 448.631 556.842 452.098 543.153 454.921L543.152 454.921C523.688 458.952 507.786 460.308 494.463 458.482C486.961 457.448 479.578 455.679 472.421 453.202C460.954 446.505 449.931 439.455 439.086 431.863L439.085 431.862C435.394 429.287 431.829 426.72 428.226 424.05C427.021 419.488 425.989 414.871 425.21 410.192L425.21 410.189C423.981 402.978 423.629 396.826 423.229 389.831C423.153 388.501 423.075 387.141 422.99 385.738L422.989 385.736C422.496 377.915 421.599 369.994 420.299 361.974L420.047 360.415L418.746 361.31C408.523 368.336 398.3 375.3 387.943 382.291L387.943 382.291C374.041 391.682 363.151 398.817 353.42 403.205C343.723 407.577 335.245 409.189 326.165 407.586C303.991 403.674 287.208 383.854 277.216 361.124L505.882 201.496Z" stroke="#C2771E" stroke-width="2"/>
<path d="M532.28 318.375C535.357 327.787 538.935 337.028 542.997 346.059C546.658 354.145 550.632 362.022 555.053 369.724C546.703 373.037 538.442 375.98 530.048 378.654C516.161 383.079 502.141 388.87 486.736 396.961C482.628 399.109 476.154 402.904 471.108 410.356C467.179 416.134 464.991 422.836 464.41 430.003C467.573 432.378 470.166 435.428 472.001 438.933C474.528 443.887 475.464 449.501 474.68 455.007" stroke="#C2771E" stroke-width="2" stroke-linecap="round"/>
<path d="M359.717 456.618C397.359 458.051 435.015 459.483 472.685 460.914C472.557 461.07 472.427 461.226 472.296 461.381C441.342 466.513 410.401 471.645 379.476 476.777C375.957 473.179 372.428 469.582 368.9 465.986L368.9 465.986C365.836 462.863 362.773 459.741 359.717 456.618Z" fill="#525D6E" stroke="#363D48" stroke-width="2"/>
<path fill-rule="evenodd" clip-rule="evenodd" d="M179.98 343.826C181.535 342.321 183.35 341.111 185.338 340.254C186.203 339.878 187.099 339.579 188.017 339.361C189.187 338.985 190.38 338.687 191.589 338.468C193.653 338.11 195.747 337.96 197.841 338.022C202.484 338.183 305.629 342.465 359.479 344.719C362.512 344.738 365.469 345.671 367.963 347.399C369.647 348.596 371.071 350.125 372.145 351.89C373.22 353.656 373.924 355.622 374.214 357.668C379.26 396.514 384.32 435.361 389.396 474.207C417.66 469.742 445.939 465.277 474.233 460.812C474.556 460.724 474.893 460.7 475.224 460.742C475.556 460.784 475.876 460.891 476.166 461.057C476.456 461.223 476.711 461.444 476.916 461.709C477.121 461.973 477.271 462.275 477.359 462.598C477.447 462.92 477.471 463.257 477.429 463.588C477.387 463.92 477.279 464.24 477.113 464.53C476.947 464.821 476.726 465.075 476.462 465.28C476.197 465.485 475.896 465.635 475.573 465.723C443.558 470.934 411.558 476.143 379.572 481.351C368.722 466.17 357.857 450.988 346.977 435.807C291.296 405.147 235.631 374.487 179.98 343.826Z" fill="#363D48" stroke="black" stroke-width="2"/>
<path fill-rule="evenodd" clip-rule="evenodd" d="M179.98 343.827C179.199 344.646 178.628 345.643 178.317 346.732C178.006 347.821 177.964 348.969 178.194 350.078C181.9 388.477 185.621 426.877 189.357 465.277C189.452 467.894 190.505 470.386 192.316 472.279C194.127 474.172 196.569 475.335 199.18 475.546C258.254 477.632 317.343 479.715 376.447 481.798C377.746 481.979 379.069 481.78 380.258 481.225C381.446 480.671 382.449 479.784 383.144 478.672C383.654 477.802 383.96 476.827 384.037 475.821C384.115 474.815 383.962 473.805 383.591 472.867C378.679 434.767 373.767 396.665 368.856 358.561C368.288 355.905 366.825 353.524 364.712 351.817C362.598 350.11 359.963 349.181 357.246 349.185C300.539 346.805 243.832 344.423 187.124 342.04C185.884 341.651 184.561 341.611 183.3 341.926C182.04 342.241 180.89 342.899 179.98 343.827Z" fill="#525D6E" stroke="#363D48" stroke-width="2"/>
<path d="M411.29 460.84L411.289 460.837C410.789 459.761 410.907 458.228 411.797 456.25C412.675 454.298 414.227 452.094 416.261 449.83C420.323 445.306 426.16 440.703 431.849 437.577C441.761 432.142 453.121 430.201 464.963 431.419C468.661 433.824 471.454 437.396 472.897 441.57C474.294 445.617 474.344 450.001 473.047 454.069C469.176 454.427 465.328 455.01 461.524 455.815L461.523 455.815C457.943 456.576 454.307 457.722 450.578 458.897C449.572 459.214 448.559 459.533 447.539 459.847C442.709 461.335 437.655 462.735 432.143 463.391C426.564 464.056 421.654 464.28 417.936 463.854C416.076 463.641 414.567 463.27 413.437 462.744C412.313 462.221 411.629 461.576 411.29 460.84Z" fill="#FBC0AD" stroke="#D9613B" stroke-width="2"/>
<path d="M437.549 582.983C449.88 566.674 464.646 552.36 481.331 540.542C496.692 529.643 514.853 520.25 536.587 513.047C557.992 505.958 580.355 502.182 602.9 501.848" stroke="#ADADAD" stroke-width="2" stroke-linecap="round"/>
<path fill-rule="evenodd" clip-rule="evenodd" d="M463.963 208.981C459.811 209.28 455.614 209.575 451.461 209.874C450.122 206.449 448.782 203.026 447.442 199.604C446.415 203.176 445.344 206.749 444.317 210.321H432.261C425.306 197.85 420.619 184.244 418.419 170.135C416.767 159.441 416.856 139.259 421.545 118.34C424.893 103.351 430.921 90.8976 434.94 86.6379C448.514 72.1532 473.831 64.5134 493.88 74.5822C501.114 78.2212 507.141 83.9142 511.741 91.103C515.77 92.1595 519.559 93.9783 522.903 96.4611C527.949 100.243 532.995 106.521 535.852 117.447C537.326 123.06 537.862 136.098 532.727 150.489C527.324 165.656 517.501 178.878 504.596 189.335C504.672 185.451 504.971 181.575 505.489 177.726C506.025 173.658 507.052 168.304 508.168 163.437C508.704 160.999 509.151 158.557 509.508 155.847C509.731 154.199 509.865 152.583 509.955 150.935C512.893 150.753 515.702 149.661 517.992 147.809C519.78 146.409 521.166 144.56 522.01 142.451C523.127 139.598 523.395 136.508 522.01 133.968C521.385 132.851 519.823 130.561 517.099 129.949C513.616 129.168 510.267 131.494 508.168 131.735C501.158 132.557 494.014 124.707 489.415 117.893C486.557 113.687 485.619 110.776 481.824 108.07C477.493 105.003 471.956 104.15 467.089 104.498C459.945 105.007 453.515 108.561 448.782 113.875C447.889 117.005 447.175 120.108 446.549 123.252C444.585 133.508 443.781 146.099 446.549 161.651C447.755 168.367 449.407 173.43 453.247 178.172C457.578 183.521 463.696 187.111 470.661 188.888C470.803 191.131 470.653 193.382 470.215 195.586C469.633 198.073 468.732 200.474 467.536 202.73C466.45 204.872 465.258 206.958 463.963 208.981Z" fill="#363D48"/>
<path d="M532.564 146.563C530.984 146.572 529.427 146.122 528.036 145.256C526.46 144.224 525.889 143.833 524.743 142.447C524.231 141.827 523.919 141.212 523.508 140.389" stroke="#525D6E" stroke-width="2" stroke-linecap="round"/>
<path d="M428.007 101.747C430.211 103.539 432.75 104.727 435.425 105.218C443.061 106.517 449.126 100.492 455.497 99.7632C460.733 99.1682 466.511 100.218 472.053 103.754" stroke="#525D6E" stroke-width="2" stroke-linecap="round"/>
<path d="M418.951 168.771C423.921 167.487 428.248 167.712 431.804 169.671C438.574 173.386 438.574 181.153 445.086 184.981C449.328 187.466 454.683 187.462 460.939 185.431" stroke="#525D6E" stroke-width="2" stroke-linecap="round"/>
<path d="M418.951 147.386C424.632 147.459 429.242 149.044 432.535 152.396C436.528 156.477 437.31 164.474 442.908 167.576C444.17 168.265 445.54 168.678 446.943 168.792" stroke="#525D6E" stroke-width="2" stroke-linecap="round"/>
<path d="M535.034 117.83C527.636 120.666 521.035 121.177 515.984 118.278C508.852 114.182 507.877 104.016 502.251 97.6666C498.529 93.4682 493.08 89.3907 486.745 87.8091C475.005 84.8652 465.613 91.8148 454.404 91.3936C448.335 91.1651 442.31 89.5252 436.24 86.4648" stroke="#525D6E" stroke-width="2" stroke-linecap="round"/>
<path d="M444.473 205.015C443.364 200.898 441.18 197.195 438.173 194.335C434.228 190.642 429.155 188.587 423.891 188.55" stroke="#525D6E" stroke-width="2" stroke-linecap="round"/>
<path d="M444.919 204.684C444.466 206.227 444.012 207.774 443.564 209.321H432.85C426.109 197.093 421.559 183.78 419.407 169.981C417.776 159.425 417.856 139.37 422.52 118.559L422.52 118.558C424.181 111.127 426.504 104.329 428.906 98.868C431.321 93.3799 433.777 89.3277 435.667 87.3241L435.67 87.3217C449.004 73.0931 473.855 65.6443 493.431 75.4758C500.486 79.025 506.384 84.5864 510.898 91.6419L511.109 91.9711L511.487 92.0703C515.392 93.0942 519.064 94.8568 522.306 97.2626C527.16 100.902 532.082 106.982 534.885 117.7L534.885 117.701C536.303 123.101 536.859 135.934 531.785 150.152L531.785 150.153C526.689 164.46 517.604 177.03 505.663 187.152C505.792 184.044 506.065 180.943 506.48 177.859L506.481 177.856C507.011 173.83 508.031 168.509 509.143 163.661L509.145 163.652C509.686 161.19 510.138 158.72 510.499 155.98C510.687 154.59 510.813 153.225 510.902 151.852C513.722 151.511 516.396 150.384 518.615 148.592C520.539 147.083 522.03 145.093 522.939 142.823L522.942 142.816C524.115 139.816 524.469 136.39 522.889 133.489L522.889 133.489L522.883 133.479C522.227 132.307 520.478 129.683 517.318 128.973L517.318 128.973C515.304 128.522 513.382 128.98 511.797 129.511C511.287 129.681 510.773 129.874 510.306 130.049C510.062 130.141 509.831 130.228 509.62 130.304C508.958 130.543 508.452 130.696 508.054 130.742L508.052 130.742C504.956 131.105 501.691 129.559 498.53 126.911C495.392 124.283 492.516 120.701 490.244 117.334L490.242 117.331C489.543 116.303 488.96 115.351 488.412 114.447C488.355 114.352 488.298 114.259 488.242 114.165C487.76 113.368 487.293 112.596 486.802 111.863C485.688 110.199 484.425 108.696 482.405 107.256L482.402 107.254C477.821 104.01 472.028 103.142 467.018 103.501C459.58 104.031 452.917 107.729 448.035 113.21L447.883 113.381L447.82 113.601C446.918 116.763 446.198 119.894 445.569 123.056L445.567 123.063C443.576 133.458 443.473 145.804 445.558 161.781L445.566 161.841L445.581 161.901C447.23 168.297 448.915 172.523 452.285 177.579L452.311 177.617L452.34 177.653C456.665 182.994 462.968 187.002 469.848 188.915C469.879 190.73 469.612 192.656 469.275 195.081C469.258 195.202 469.241 195.325 469.224 195.449C469.154 195.954 469.093 196.419 469.037 196.856C468.76 198.973 468.571 200.427 467.814 202.632C466.981 205.059 466.043 206.756 464.895 208.579C462.968 208.694 460.734 208.701 458.461 208.709L458.436 208.709C456.27 208.716 454.068 208.723 452.126 208.83C450.875 205.632 449.625 202.435 448.374 199.24L447.297 196.49L446.481 199.328C445.969 201.111 445.445 202.894 444.92 204.681L444.919 204.684Z" stroke="black" stroke-width="2"/>
<path d="M514.197 182.236C523.962 182.236 531.879 174.319 531.879 164.554C531.879 154.788 523.962 146.872 514.197 146.872C504.431 146.872 496.515 154.788 496.515 164.554C496.515 174.319 504.431 182.236 514.197 182.236Z" stroke="white" stroke-width="2" stroke-linecap="round"/>
</svg>
