<svg width="84" height="30" viewBox="0 0 84 30" fill="none" xmlns="http://www.w3.org/2000/svg">
<path d="M41.5826 9.26457L45.5527 9.0154C45.6393 9.66073 45.8145 10.152 46.0782 10.4893C46.5091 11.0359 47.1232 11.3093 47.9206 11.3093C48.5156 11.3093 48.9746 11.1698 49.2978 10.891C49.4458 10.7752 49.566 10.6277 49.6496 10.4595C49.7332 10.2912 49.7781 10.1063 49.781 9.91845C49.7786 9.73833 49.7368 9.56091 49.6585 9.39866C49.5802 9.2364 49.4674 9.09322 49.328 8.97916C49.026 8.70331 48.3137 8.44206 47.1912 8.19541C45.3609 7.78466 44.0557 7.23799 43.2755 6.55542C42.8958 6.2374 42.5926 5.83795 42.3884 5.38673C42.1842 4.9355 42.0843 4.44409 42.0961 3.94896C42.0989 3.24925 42.3091 2.5661 42.7001 1.9858C43.1466 1.33176 43.7773 0.825082 44.5122 0.530051C45.3176 0.176684 46.4251 0 47.8345 0C49.5601 0 50.8759 0.321152 51.7819 0.963455C52.688 1.60576 53.2271 2.6266 53.3993 4.02597L49.4654 4.25551C49.3647 3.65146 49.1453 3.2095 48.807 2.92963C48.4687 2.64975 48.0056 2.51032 47.4177 2.51133C46.933 2.51133 46.5675 2.61552 46.3229 2.8209C46.2073 2.90976 46.1139 3.02417 46.05 3.15517C45.9861 3.28617 45.9533 3.4302 45.9544 3.57596C45.9581 3.68907 45.9871 3.79991 46.0394 3.90029C46.0917 4.00066 46.1658 4.088 46.2564 4.15584C46.4527 4.33404 46.9194 4.50015 47.6563 4.65418C49.4805 5.04681 50.7893 5.44448 51.5826 5.84718C52.3759 6.24987 52.9498 6.74872 53.3041 7.3437C53.6658 7.94727 53.8525 8.63953 53.8433 9.3431C53.8476 10.195 53.5979 11.0289 53.1259 11.7381C52.6348 12.4777 51.936 13.0556 51.1175 13.3993C50.2567 13.7768 49.1725 13.9656 47.8647 13.9656C45.5683 13.9656 43.9777 13.5236 43.0927 12.6397C42.2078 11.7558 41.7044 10.6307 41.5826 9.26457ZM0.946844 13.7391V0.228028H7.90245C9.19209 0.228028 10.1777 0.338266 10.8593 0.558744C11.5306 0.773176 12.111 1.20584 12.5083 1.78798C12.9407 2.43412 13.1608 3.19901 13.138 3.97614C13.1555 4.65431 12.9885 5.3245 12.6548 5.91513C12.3345 6.46266 11.881 6.92032 11.3365 7.24554C10.8786 7.49808 10.3845 7.6784 9.87164 7.78013C10.2554 7.89314 10.621 8.06044 10.9574 8.27696C11.2074 8.48477 11.4324 8.72092 11.6279 8.98067C11.8478 9.23882 12.0425 9.51746 12.2093 9.81275L14.2298 13.7391H9.51374L7.28481 9.60586C7.00191 9.07128 6.75023 8.72395 6.52975 8.56388C6.22931 8.35567 5.87139 8.24639 5.50589 8.25128H5.1344V13.7391H0.946844ZM5.1344 5.69918H6.89822C7.2715 5.67131 7.64148 5.60965 8.00362 5.51495C8.27425 5.46303 8.51561 5.31164 8.68016 5.09061C8.85417 4.86734 8.94686 4.59141 8.94292 4.30837C8.95427 4.12046 8.92279 3.93242 8.85085 3.75846C8.77891 3.58449 8.66839 3.42914 8.52764 3.30414C8.25179 3.07057 7.73281 2.95379 6.9707 2.95379H5.1344V5.69918ZM0 25.3005L3.9701 25.0529C4.05668 25.6982 4.23185 26.1895 4.49562 26.5267C4.92147 27.0734 5.5371 27.3467 6.3425 27.3467C6.93748 27.3467 7.39656 27.2068 7.71972 26.9269C7.86772 26.8111 7.98793 26.6637 8.07155 26.4954C8.15516 26.3271 8.20006 26.1423 8.20296 25.9544C8.2003 25.7743 8.15839 25.597 8.08014 25.4347C8.0019 25.2725 7.88921 25.1293 7.74993 25.0151C7.4479 24.7393 6.73563 24.4785 5.61311 24.2329C3.78285 23.8201 2.4776 23.2734 1.69737 22.5929C1.31775 22.2745 1.01463 21.8747 0.810466 21.4233C0.606306 20.9718 0.506339 20.4802 0.51797 19.9849C0.521313 19.2853 0.731474 18.6022 1.12202 18.0217C1.56852 17.3677 2.19924 16.861 2.93416 16.566C3.73956 16.2126 4.84698 16.0359 6.25642 16.0359C7.98198 16.0359 9.2978 16.3571 10.2039 16.9994C11.1099 17.6417 11.649 18.6625 11.8212 20.0619L7.8949 20.293C7.79422 19.6889 7.57475 19.2465 7.23649 18.9656C6.89822 18.6847 6.43562 18.5468 5.84869 18.5518C5.36444 18.5518 4.9995 18.6525 4.75385 18.8538C4.6383 18.9427 4.5449 19.0571 4.48097 19.1881C4.41704 19.3191 4.38432 19.4631 4.38538 19.6089C4.38882 19.7222 4.41776 19.8334 4.47005 19.934C4.52234 20.0347 4.59663 20.1223 4.68741 20.1903C4.88372 20.3685 5.35035 20.5341 6.08729 20.6871C7.91151 21.0797 9.22028 21.4774 10.0136 21.8801C10.8069 22.2828 11.3808 22.7816 11.7351 23.3766C12.0966 23.9803 12.2832 24.6725 12.2742 25.376C12.2788 26.228 12.029 27.0619 11.5569 27.7711C11.0658 28.5106 10.367 29.0885 9.54848 29.4322C8.68771 29.8097 7.60344 29.9985 6.29568 29.9985C3.9993 29.9985 2.40864 29.5565 1.52371 28.6726C0.63878 27.7887 0.130877 26.6647 0 25.3005ZM24.6149 24.2419L28.2724 25.3473C28.0701 26.2752 27.6744 27.15 27.1111 27.9145C26.5979 28.5901 25.9227 29.1255 25.148 29.4715C24.3647 29.8208 23.3681 29.9955 22.158 29.9955C20.6901 29.9955 19.4911 29.7825 18.5609 29.3567C17.6306 28.9308 16.8252 28.1803 16.1447 27.1051C15.4681 26.0309 15.1304 24.6562 15.1314 22.981C15.1314 20.748 15.7254 19.031 16.9133 17.83C18.1013 16.6289 19.7825 16.0289 21.9571 16.0299C23.6595 16.0299 24.997 16.3742 25.9695 17.0628C26.942 17.7514 27.6649 18.8085 28.138 20.2341L24.4533 21.0541C24.3668 20.7327 24.2302 20.4269 24.0486 20.148C23.8255 19.8381 23.532 19.5856 23.1924 19.4111C22.8404 19.2357 22.4515 19.1471 22.0583 19.1528C21.113 19.1528 20.3886 19.5334 19.8852 20.2945C19.5027 20.8593 19.3119 21.7457 19.3129 22.9538C19.3129 24.4498 19.5404 25.4757 19.9955 26.0314C20.4505 26.5871 21.0893 26.8645 21.9118 26.8635C22.7092 26.8635 23.3132 26.6395 23.724 26.1915C24.1347 25.7435 24.4317 25.0936 24.6149 24.2419ZM31.4875 16.264H35.6599V20.9876H40.2205V16.264H44.4111V29.769H40.2205V24.3099H35.6599V29.7735H31.4875V16.264ZM47.0085 23.0248C47.0085 20.822 47.6226 19.1055 48.8508 17.8753C50.079 16.645 51.7905 16.0309 53.9852 16.0329C56.2323 16.0329 57.9639 16.637 59.18 17.8451C60.3962 19.0532 61.0057 20.743 61.0088 22.9145C61.0088 24.4941 60.743 25.7888 60.2114 26.7985C59.6941 27.795 58.8926 28.6155 57.9085 29.1558C56.9017 29.7176 55.6504 29.9985 54.1543 29.9985C52.6321 29.9985 51.3737 29.7559 50.379 29.2706C49.3571 28.7642 48.5115 27.9617 47.9523 26.9677C47.3221 25.9187 47.0075 24.6043 47.0085 23.0248ZM51.1809 23.0444C51.1809 24.4085 51.4326 25.3881 51.936 25.9831C52.4394 26.5781 53.129 26.8756 54.0048 26.8756C54.9018 26.8756 55.596 26.5841 56.0873 26.0012C56.5786 25.4183 56.8242 24.3713 56.8242 22.8602C56.8242 21.5886 56.5675 20.6594 56.0541 20.0725C55.5406 19.4856 54.845 19.1926 53.9671 19.1936C53.5854 19.1799 53.2055 19.2526 52.8559 19.4064C52.5063 19.5601 52.1959 19.7909 51.9481 20.0815C51.4376 20.6856 51.1819 21.6732 51.1809 23.0444Z" fill="white"/>
<path d="M59.2388 23.0246C59.2388 20.8218 59.8529 19.1053 61.0811 17.8751C62.3093 16.6448 64.0208 16.0307 66.2155 16.0327C68.4646 16.0327 70.1967 16.6368 71.4118 17.8449C72.627 19.053 73.2345 20.7433 73.2345 22.9158C73.2345 24.4954 72.9693 25.7901 72.4387 26.7999C71.921 27.796 71.1196 28.6163 70.1358 29.1572C69.129 29.7189 67.8776 29.9998 66.3816 29.9998C64.8584 29.9998 63.6 29.7572 62.6063 29.2719C61.5843 28.7651 60.7383 27.9628 60.1781 26.969C59.5519 25.919 59.2388 24.6041 59.2388 23.0246ZM63.4127 23.0442C63.4127 24.4083 63.6644 25.3879 64.1678 25.9829C64.6712 26.5779 65.3618 26.8759 66.2397 26.8769C67.1367 26.8769 67.8308 26.5854 68.3221 26.0025C68.8134 25.4196 69.0591 24.3726 69.0591 22.8615C69.0591 21.59 68.8029 20.6607 68.2904 20.0738C67.778 19.4869 67.0823 19.1939 66.2034 19.1949C65.8211 19.1802 65.4404 19.2523 65.0899 19.4058C64.7394 19.5594 64.4283 19.7903 64.1799 20.0813C63.6674 20.6854 63.4117 21.673 63.4127 23.0442Z" fill="white"/>
<path d="M72.7998 16.2642H76.9738V26.4439H83.4869V29.7661H72.7998V16.2642Z" fill="white"/>
</svg>
