<svg width="220" height="160" viewBox="0 0 220 160" fill="none" xmlns="http://www.w3.org/2000/svg">
<path d="M5.11923 0C2.30228 7.87431 0.663429 16.124 0.256064 24.4803C-0.229262 34.678 -0.625447 43.186 5.04 50.1534C12.0525 58.7806 24.7601 60.5697 33.595 58.9297C54.0679 55.1528 66.825 30.8116 66.9439 10.9332C66.949 7.26318 66.5974 3.60146 65.894 0L5.11923 0Z" fill="#F3B63F"/>
<path d="M200.161 2.23653e-05H40.8749C35.6891 4.75048 31.3041 10.3122 27.89 16.4693C26.741 18.5963 14.8555 40.7509 21.6798 59.9137C23.7713 65.4013 26.7496 70.5055 30.4949 75.0214C32.4758 77.2477 33.6842 78.2615 38.6167 82.4161C50.5121 92.4349 56.5738 97.5536 59.3074 100.714C59.5253 100.963 62.7543 105.465 69.2121 114.45C75.0954 122.64 77.1358 125.453 80.8104 128.733C84.2749 131.629 88.0683 134.105 92.1116 136.108C101.58 140.769 117.23 144.159 132.849 140.71C160.493 134.597 184.502 107.801 190.029 84.9507C190.821 81.6806 191.514 77.3173 195.149 73.3118C201.805 65.9866 211.442 67.4178 220 67.3483V19.8785C220 17.2655 219.487 14.6781 218.489 12.2644C217.492 9.85072 216.03 7.65801 214.188 5.81174C212.345 3.96546 210.158 2.50185 207.751 1.50461C205.344 0.507382 202.765 -0.00389712 200.161 2.23653e-05Z" fill="#6550F6"/>
<path d="M67.558 8.40859C53.0477 10.3964 45.1141 21.4489 44.1632 22.8205C41.3305 26.8856 35.2491 35.6123 38.5869 44.5576C41.9248 53.5029 52.2751 57.1208 59.8819 57.1108C74.2436 57.1108 82.2762 43.673 83.5341 41.5758C88.6845 32.9883 92.2106 18.0894 84.8911 11.2612C79.9784 6.67917 72.3023 7.7526 67.558 8.40859Z" fill="#FA6678"/>
<path d="M219.971 53.4435C216.524 53.3839 212.829 53.5032 208.828 53.6324C198.369 53.9803 180.808 54.5567 164.505 67.0503C159.186 71.1254 141.476 84.7024 141.229 106.062C141.05 121.209 149.757 131.904 154.6 137.867C157.631 141.605 173.132 160.668 195.952 159.982C203.588 159.754 209.174 157.398 213.533 155.51C215.743 154.552 217.893 153.46 219.971 152.24V53.4435Z" fill="#F3B63F"/>
<path d="M219.97 105.724C214.691 104.968 208.214 108.159 205.113 113.596C202.33 118.476 201.815 125.98 206.599 130.83C208.351 132.498 210.505 133.677 212.851 134.253C215.196 134.828 217.65 134.779 219.97 134.11V105.724Z" fill="#6550F6"/>
</svg>
