<svg width="284" height="254" fill="none" xmlns="http://www.w3.org/2000/svg"><mask id="a" maskUnits="userSpaceOnUse" x="0" y="0" width="284" height="254"><path d="M284 0H0v254h284V0z" fill="#C4C4C4"/></mask><g mask="url(#a)"><path fill-rule="evenodd" clip-rule="evenodd" d="M111.634 128.634a44.137 44.137 0 01-2.601 24.654 38.106 38.106 0 01-7.446 11.632 36.727 36.727 0 01-10.763 7.831c-.331 11.892 2.692 23.259 10.405 31.141 16.693 17.07 47.861 10.258 65.679-.648 10.535-6.449 18.872-15.844 24.711-27.249a24.709 24.709 0 01-13.656-5.839c-5.8-5.041-8.701-12.509-8.454-20.112v-58.39l-57.875 36.98z" fill="#FBC0AD"/><path fill-rule="evenodd" clip-rule="evenodd" d="M111.585 129.177a79.073 79.073 0 01-1.31 22.292c8.805 2.76 18.035 2.917 26.185-.656 15.808-6.923 26.151-27.261 22.256-51.14l-47.131 29.504z" fill="#F7987A"/><path d="M102.311 165.609l.006-.006a39.12 39.12 0 007.64-11.937 45.126 45.126 0 002.775-24.548l28.377-18.132 27.399-17.507v56.548c-.251 7.868 2.752 15.629 8.798 20.884l.005.004a25.71 25.71 0 0012.755 5.889c-5.725 10.687-13.709 19.483-23.681 25.587-8.786 5.378-20.881 9.751-32.816 10.671-11.939.92-23.562-1.623-31.626-9.869-7.331-7.494-10.342-18.309-10.133-29.811a37.697 37.697 0 0010.501-7.773z" stroke="#D9613B" stroke-width="2"/><path fill-rule="evenodd" clip-rule="evenodd" d="M128.382 33.619h1.885c10.761-1.632 21.787 1.834 29.354 9.829 5.947 6.367 9.201 14.831 9.07 23.59a12.825 12.825 0 014.066-3.242 12.686 12.686 0 015.004-1.346c2.585-.105 5.655.498 7.774 2.621 2.546 2.55 2.792 6.297 2.591 8.519-.512 5.674-4.982 9.16-7.126 10.484a16.03 16.03 0 01-11.661 1.966v7.863c.007 2.19-.11 4.377-.35 6.553-1.555 14.18-6.867 23.262-11.338 27.803a38.53 38.53 0 01-12.553 8.526 38.188 38.188 0 01-14.831 2.987h-1.885a38.42 38.42 0 01-14.841-3.016 38.766 38.766 0 01-12.571-8.531 39.266 39.266 0 01-8.386-12.747 39.628 39.628 0 01-2.924-15.022V72.935c0-7.208-.002-14.416-.007-21.624a213.853 213.853 0 0111.351-6.18c8.853-4.47 18-8.317 27.378-11.512z" fill="#FBC0AD"/><path d="M177.468 62c2.166.167 6.998 1.3 8.997 4.5 2.499 3.999 2.137 10-2.499 14.997-4.048 4.362-8.394 4.553-14.495 4.499-.471 18.504-4.971 53.991-39.985 53.991C94.289 139.987 90 109.992 90 94.495V53" stroke="#D9613B" stroke-width="2"/><path d="M103.02 96.602c4.429 0 8.019-2.565 8.019-5.728 0-3.164-3.59-5.728-8.019-5.728-4.43 0-8.02 2.564-8.02 5.728 0 3.163 3.59 5.728 8.02 5.728zM144.264 95.457c4.429 0 8.02-2.565 8.02-5.729 0-3.163-3.591-5.728-8.02-5.728-4.429 0-8.02 2.565-8.02 5.728 0 3.164 3.591 5.729 8.02 5.729z" fill="#F6987A"/><path fill-rule="evenodd" clip-rule="evenodd" d="M183.448 71.215a4.008 4.008 0 00-1.13-1.427 3.748 3.748 0 00-1.614-.745c-.837-.195-3.074.232-5.49 2.172a12.482 12.482 0 00-3.43 4.344c-.803 1.651-.899 2.947-.687 3.62.175.498.449.949.805 1.324a3.47 3.47 0 001.254.849c3.046 1.252 6.793-2.498 8.234-4.345 2.099-2.686 2.484-4.691 2.058-5.792z" fill="#F7987A"/><path d="M171 75.874c.64-2.016 1.872-3.766 3.518-5.001A9.267 9.267 0 01180.165 69M123.729 68.74c.365 4.048.392 8.115.08 12.166-.239 2.304-.774 4.019-1.425 4.97-1.316 1.922-3.059 2.297-4.679 4.142-.983 1.03-1.578 2.312-1.7 3.663.094 1.973 1.663 3.734 3.479 4.847" stroke="#D9613B" stroke-width="2" stroke-linecap="round"/><path d="M101.11 64.157c.629-.704 1.481-1.282 2.48-1.682a8.796 8.796 0 013.249-.609c1.133 0 2.249.21 3.248.609 1 .4 1.851.978 2.48 1.682" stroke="#000" stroke-width="3" stroke-linecap="round"/><path d="M106.266 81.342c1.581 0 2.864-1.538 2.864-3.437 0-1.898-1.283-3.437-2.864-3.437-1.582 0-2.865 1.54-2.865 3.437 0 1.898 1.283 3.437 2.865 3.437z" fill="#000"/><path d="M135.48 64.157c.629-.704 1.48-1.282 2.48-1.682a8.795 8.795 0 013.248-.609c1.134 0 2.25.21 3.249.609.999.4 1.851.978 2.48 1.682" stroke="#000" stroke-width="3" stroke-linecap="round"/><path d="M140.636 81.342c1.582 0 2.864-1.538 2.864-3.437 0-1.898-1.282-3.437-2.864-3.437-1.582 0-2.864 1.54-2.864 3.437 0 1.898 1.282 3.437 2.864 3.437z" fill="#000"/><path fill-rule="evenodd" clip-rule="evenodd" d="M112.572 105.401h19.466a15.026 15.026 0 01-.649 4.792c-.47 1.527-1.18 2.919-2.088 4.095-.908 1.175-1.996 2.11-3.197 2.748a8.067 8.067 0 01-3.799.968 8.067 8.067 0 01-3.799-.968c-1.201-.638-2.289-1.573-3.197-2.748-.908-1.176-1.618-2.568-2.088-4.095a15.026 15.026 0 01-.649-4.792z" fill="#fff"/><path fill-rule="evenodd" clip-rule="evenodd" d="M94.439 170.705c3.606 12.695 11.835 23.886 23.995 28.794 5.74 2.316 21.862 3.353 40.858-5.759a80.314 80.314 0 0025.293-19.196 115.89 115.89 0 0120.753 3.199c15.027 3.737 29.554 10.692 40.858 19.196C275.095 218.688 288.488 255.263 289 291H-5.437a128.673 128.673 0 018.431-44.151c9.21-24.091 23.076-41.336 38.264-53.109 15.487-11.96 33.776-19.882 53.18-23.035z" fill="#F3B63F"/><path d="M85.546 205.283l12.122 4.672c1.436.554 1.735 2.455.537 3.423l-10.107 8.161c-1.198.967-2.993.275-3.232-1.246l-2.015-12.833c-.238-1.521 1.259-2.73 2.695-2.177zM155.736 225.393l7.186 10.822c.851 1.283-.005 3.007-1.542 3.103l-12.965.811c-1.536.096-2.601-1.507-1.916-2.886l5.78-11.633c.685-1.379 2.606-1.5 3.457-.217zM192.276 188.144l11.19 6.597c1.327.782 1.309 2.706-.031 3.464l-11.309 6.393c-1.34.757-2.998-.22-2.984-1.76l.118-12.989c.014-1.54 1.689-2.487 3.016-1.705zM254.627 227.836l.147 12.989c.018 1.54-1.638 2.521-2.98 1.766l-11.323-6.367c-1.342-.754-1.364-2.679-.039-3.464l11.175-6.622c1.325-.785 3.002.158 3.02 1.698zM47.345 230.406l4.1 12.326c.487 1.461-.791 2.9-2.3 2.591l-12.724-2.612c-1.508-.31-2.116-2.136-1.094-3.287l8.625-9.714c1.022-1.152 2.907-.765 3.393.696z" stroke="#FFCD6A" stroke-width="2"/><path fill-rule="evenodd" clip-rule="evenodd" d="M118.775 48.107c-7.898 5.036-15.803 7.612-20.94 8.457-2.812.46-4.485.464-7.334.436v15c-3.11-1.196-7-3.044-9.026-5.678a18.67 18.67 0 01-3.245-7.133 18.611 18.611 0 01-.027-7.829c-4.803-3.116-8.52-7.579-9.816-13.01-2.644-11.073 5.575-22.71 15.705-26.672a25.168 25.168 0 0115.706-.65A44.11 44.11 0 01122.047.617c11.609-1.762 19.384.462 24.868 3.904a31.132 31.132 0 0110.47 11.059 19.808 19.808 0 0111.125 2.602c3.049 1.789 6.773 5.315 9.161 12.36 1.237 3.65 1.446 7.293 1.309 12.36-.124 4.684-.53 8.977-.654 13.661a119.566 119.566 0 000 6.506 17.008 17.008 0 00-4.581 1.3 14.79 14.79 0 00-4.378 3.052A41.003 41.003 0 01156.73 50.71a38.682 38.682 0 01-1.963-6.506 26.816 26.816 0 00-7.198-3.252c-4.862-1.373-10.608-1.386-17.014.65-4.987 1.587-7.454 3.747-11.78 6.505z" fill="#363D48"/><path fill-rule="evenodd" clip-rule="evenodd" d="M94.237 170.705c-28.077 9.886-51.617 29.478-65.37 55.668C18.49 246.272 14.216 268.733 16.569 291H-5.437a128.902 128.902 0 018.414-44.151c9.191-24.091 23.029-41.336 38.187-53.109 15.455-11.96 33.707-19.882 53.073-23.035z" fill="#F29E20"/><path d="M159.726 194.641l.003-.001a81.311 81.311 0 0025.281-19.067 114.936 114.936 0 0120.088 3.141c14.901 3.705 29.305 10.604 40.498 19.024 28.309 21.306 41.641 57.06 42.387 92.262H-4.419a127.684 127.684 0 018.348-42.795c9.144-23.92 22.9-41.014 37.942-52.675 15.122-11.678 32.94-19.473 51.858-22.693 3.79 12.56 12.094 23.65 24.332 28.589l.326-.809-.326.809c3.065 1.237 8.701 2.073 15.915 1.475 7.24-.6 16.139-2.649 25.75-7.26z" stroke="#C2771E" stroke-width="2"/><mask id="b" maskUnits="userSpaceOnUse" x="67" y="0" width="113" height="72"><path fill-rule="evenodd" clip-rule="evenodd" d="M118.775 48.107c-7.898 5.036-15.803 7.612-20.94 8.457-2.812.46-4.485.464-7.334.436v15c-3.11-1.196-7-3.044-9.026-5.678a18.67 18.67 0 01-3.245-7.133 18.611 18.611 0 01-.027-7.829c-4.803-3.116-8.52-7.579-9.816-13.01-2.644-11.073 5.575-22.71 15.705-26.672a25.168 25.168 0 0115.706-.65A44.11 44.11 0 01122.047.617c11.609-1.762 19.384.462 24.868 3.904a31.132 31.132 0 0110.47 11.059 19.808 19.808 0 0111.125 2.602c3.049 1.789 6.773 5.315 9.161 12.36 1.237 3.65 1.446 7.293 1.309 12.36-.124 4.684-.53 8.977-.654 13.661a119.566 119.566 0 000 6.506 17.008 17.008 0 00-4.581 1.3 14.79 14.79 0 00-4.378 3.052A41.003 41.003 0 01156.73 50.71a38.682 38.682 0 01-1.963-6.506 26.816 26.816 0 00-7.198-3.252c-4.862-1.373-10.608-1.386-17.014.65-4.987 1.587-7.454 3.747-11.78 6.505z" fill="#000"/></mask><g mask="url(#b)"><path d="M180.162 65.303c-.052-7.998-2.143-14.768-6.937-19.593-4.485-4.512-9.292-5.263-16.654-7.835-10.193-3.559-18.623-9.18-20.823-11.752-5.766-6.758-7.844-15.833-6.937-26.123M173.287 100.819c-4.314-3.15-7.568-6.984-9.124-11.598-2.16-6.41.15-11.758-.703-17.402-.761-5.02-3.214-10.142-7.015-14.82-5.909-7.274-12.17-8.685-20.357-14.18a66.89 66.89 0 01-14.037-12.887c-4.041-4.832-6.358-8.75-11.226-12.886A52.877 52.877 0 0095.382 8.02" stroke="#525D6F" stroke-width="2" stroke-linecap="round"/><path d="M128.606 46.972a78.167 78.167 0 01-11.233-11.23c-2.396-2.966-5.332-6.877-10.535-9.91a28.762 28.762 0 00-11.935-3.963c-5.854-.522-9.976 1.057-14.749 2.643-4.382 1.453-9.304 2.926-11.935 3.303-8.882 1.261-17.86-1.037-26.684-5.946" stroke="#525D6F" stroke-width="2" stroke-linecap="round"/><path d="M65.595 44.13c3.725-4.292 8.678-7.508 14.284-9.275a36 36 0 0121.423 0c4.311 1.328 8.264 3.507 11.592 6.389 3.327 2.881 5.951 6.398 7.693 10.311" stroke="#525D6F" stroke-width="2" stroke-linecap="round"/><path d="M105.693 56.138a20.871 20.871 0 00-4.317-7.084 20.144 20.144 0 00-6.678-4.753c-4.15-1.846-10.033-2.865-15.815-.657a19.39 19.39 0 00-7.56 5.258" stroke="#525D6F" stroke-width="2" stroke-linecap="round"/><path fill-rule="evenodd" clip-rule="evenodd" d="M184.59 70.955a4.018 4.018 0 00-1.13-1.427 3.747 3.747 0 00-1.615-.745c-.837-.195-3.074.232-5.489 2.172a12.495 12.495 0 00-3.431 4.344c-.803 1.651-.899 2.947-.686 3.62.175.498.449.95.804 1.324.355.375.783.665 1.255.849 3.046 1.252 6.793-2.498 8.233-4.344 2.1-2.687 2.484-4.692 2.059-5.793z" fill="#FCAB92"/><path d="M172.143 75.614c.64-2.015 1.871-3.766 3.518-5.001a9.263 9.263 0 015.647-1.872" stroke="#D9613B" stroke-width="2" stroke-linecap="round"/><path d="M89.5 57V70.52c-2.755-1.166-5.652-2.755-7.228-4.8a17.67 17.67 0 01-3.067-6.743 17.612 17.612 0 01-.025-7.409l.142-.672-.576-.374c-4.644-3.013-8.165-7.28-9.388-12.403v0c-1.246-5.222.057-10.627 2.938-15.241C75.18 18.262 79.6 14.51 84.45 12.612a24.167 24.167 0 0115.075-.623l.523.149.409-.36a43.112 43.112 0 0121.743-10.171c11.396-1.73 18.923.462 24.181 3.76a30.134 30.134 0 0110.132 10.703l.307.548.628-.04a18.808 18.808 0 0110.56 2.47c2.838 1.666 6.405 4.999 8.716 11.816 1.179 3.478 1.393 6.976 1.256 12.012v0c-.061 2.324-.193 4.552-.325 6.799l-.001.007c-.132 2.24-.265 4.497-.328 6.855a121.043 121.043 0 00-.02 5.686c-1.365.257-2.696.67-3.966 1.234l-.009.004a15.773 15.773 0 00-4.02 2.634 39.985 39.985 0 01-11.654-15.76A37.668 37.668 0 01155.745 44l-.085-.41-.352-.227a27.83 27.83 0 00-7.467-3.374h-.001c-5.066-1.43-11.012-1.431-17.589.66v0c-4.023 1.28-6.513 2.952-9.424 4.906-.816.548-1.665 1.118-2.591 1.708-7.783 4.963-15.561 7.49-20.565 8.314-2.724.446-4.327.45-7.161.422l-1.01-.01V57z" stroke="#000" stroke-width="2"/></g></g></svg>