<svg width="444" height="174" viewBox="0 0 444 174" fill="none" xmlns="http://www.w3.org/2000/svg">
<path d="M112.01 52.8418C116.115 57.2529 121.106 60.6344 125.775 64.3967" stroke="#FF94A1" stroke-width="3" stroke-linecap="round" stroke-linejoin="round"/>
<path d="M154.451 101.372C160.727 102.292 167.567 103.683 173.952 103.683" stroke="#FF94A1" stroke-width="3" stroke-linecap="round" stroke-linejoin="round"/>
<path d="M153.305 2C150.206 6.04586 146.559 9.95038 142.981 13.5549" stroke="#FF94A1" stroke-width="3" stroke-linecap="round" stroke-linejoin="round"/>
<path d="M311.6 82.3067C311.685 76.0604 312.303 69.9658 313.32 63.8188" stroke="#F3B63F" stroke-width="3" stroke-linecap="round" stroke-linejoin="round"/>
<path d="M350.6 28.5762C358.038 33.0813 365.81 36.9305 372.968 41.8643" stroke="#FF94A1" stroke-width="3" stroke-linecap="round" stroke-linejoin="round"/>
<path d="M387.88 91.5503C383.516 93.235 378.704 95.8256 374.115 96.75" stroke="#FF94A1" stroke-width="3" stroke-linecap="round" stroke-linejoin="round"/>
<path d="M99.5009 96.8931C92.926 100.72 86.0746 104.15 79.4272 107.87" stroke="#F3B63F" stroke-width="3" stroke-linecap="round" stroke-linejoin="round"/>
<path d="M40.4268 18.3197C44.2603 17.7306 48.1439 17.3426 51.8974 16.5864" stroke="#F3B63F" stroke-width="3" stroke-linecap="round" stroke-linejoin="round"/>
<path d="M54.7651 161.023C56.2677 163.753 58.8343 170.863 62.2211 172" stroke="#FF94A1" stroke-width="3" stroke-linecap="round" stroke-linejoin="round"/>
<path d="M19.7796 77.2499C14.1697 76.8282 6.79463 75.8478 2 72.6279" stroke="#FF94A1" stroke-width="3" stroke-linecap="round" stroke-linejoin="round"/>
<path d="M398 156C399.747 160.534 401.639 163.438 404.882 166.977" stroke="#FF94A1" stroke-width="3" stroke-linecap="round" stroke-linejoin="round"/>
<path d="M428.136 46.629C431.52 44.8771 434.773 43.0463 437.886 40.8516" stroke="#F3B63F" stroke-width="3" stroke-linecap="round" stroke-linejoin="round"/>
<path d="M440.411 108.905C440.48 105.229 440.86 101.946 442 98.5015" stroke="#FF94A1" stroke-width="3" stroke-linecap="round" stroke-linejoin="round"/>
</svg>
