<svg width="444" height="254" viewBox="0 0 444 254" fill="none" xmlns="http://www.w3.org/2000/svg">
<path d="M112.01 105.842C116.115 110.253 121.107 113.634 125.775 117.397" stroke="#FF94A1" stroke-width="3" stroke-linecap="round" stroke-linejoin="round"/>
<path d="M154.452 154.372C160.728 155.292 167.568 156.683 173.952 156.683" stroke="#FF94A1" stroke-width="3" stroke-linecap="round" stroke-linejoin="round"/>
<path d="M153.305 55C150.206 59.0459 146.559 62.9504 142.981 66.5549" stroke="#FF94A1" stroke-width="3" stroke-linecap="round" stroke-linejoin="round"/>
<path d="M311.6 135.307C311.685 129.06 312.303 122.966 313.32 116.819" stroke="#F3B63F" stroke-width="3" stroke-linecap="round" stroke-linejoin="round"/>
<path d="M350.6 81.5762C358.038 86.0813 365.81 89.9305 372.968 94.8643" stroke="#FF94A1" stroke-width="3" stroke-linecap="round" stroke-linejoin="round"/>
<path d="M387.88 144.55C383.516 146.235 378.704 148.826 374.115 149.75" stroke="#FF94A1" stroke-width="3" stroke-linecap="round" stroke-linejoin="round"/>
<path d="M99.5009 149.893C92.926 153.72 86.0746 157.15 79.4272 160.87" stroke="#F3B63F" stroke-width="3" stroke-linecap="round" stroke-linejoin="round"/>
<path d="M40.4268 71.3197C44.2603 70.7306 48.1439 70.3426 51.8974 69.5864" stroke="#F3B63F" stroke-width="3" stroke-linecap="round" stroke-linejoin="round"/>
<path d="M54.7651 214.023C56.2677 216.753 58.8343 223.863 62.2211 225" stroke="#FF94A1" stroke-width="3" stroke-linecap="round" stroke-linejoin="round"/>
<path d="M19.7796 130.25C14.1697 129.828 6.79463 128.848 2 125.628" stroke="#FF94A1" stroke-width="3" stroke-linecap="round" stroke-linejoin="round"/>
<path d="M398 209C399.747 213.534 401.639 216.438 404.882 219.977" stroke="#FF94A1" stroke-width="3" stroke-linecap="round" stroke-linejoin="round"/>
<path d="M428.136 99.629C431.52 97.8771 434.773 96.0463 437.886 93.8516" stroke="#F3B63F" stroke-width="3" stroke-linecap="round" stroke-linejoin="round"/>
<path d="M440.411 161.905C440.48 158.229 440.86 154.946 442 151.501" stroke="#FF94A1" stroke-width="3" stroke-linecap="round" stroke-linejoin="round"/>
<mask id="mask0" mask-type="alpha" maskUnits="userSpaceOnUse" x="109" y="0" width="284" height="254">
<path d="M393 0H109V254H393V0Z" fill="#C4C4C4"/>
</mask>
<g mask="url(#mask0)">
<path fill-rule="evenodd" clip-rule="evenodd" d="M220.634 128.634C222.14 136.931 221.238 145.485 218.033 153.288C216.281 157.585 213.758 161.527 210.587 164.92C207.508 168.163 203.86 170.817 199.824 172.751C199.493 184.643 202.516 196.01 210.229 203.892C226.922 220.962 258.09 214.15 275.908 203.244C286.443 196.795 294.78 187.4 300.619 175.995C295.574 175.494 290.806 173.456 286.963 170.156C281.163 165.115 278.262 157.647 278.509 150.044V91.6533C259.218 103.98 239.926 116.307 220.634 128.634Z" fill="#FBC0AD"/>
<path fill-rule="evenodd" clip-rule="evenodd" d="M220.585 129.177C221.205 136.632 220.764 144.138 219.275 151.469C228.08 154.229 237.31 154.386 245.46 150.813C261.268 143.89 271.611 123.552 267.716 99.6733L220.585 129.177Z" fill="#F7987A"/>
<path d="M211.311 165.609L211.317 165.603C214.57 162.121 217.159 158.076 218.957 153.666C222.149 145.895 223.108 137.395 221.732 129.118L250.109 110.986L277.508 93.479V150.027C277.257 157.895 280.26 165.656 286.306 170.911L286.311 170.915C289.938 174.029 294.358 176.064 299.066 176.804C293.341 187.491 285.357 196.287 275.385 202.391C266.599 207.769 254.504 212.142 242.569 213.062C230.63 213.982 219.007 211.439 210.943 203.193C203.612 195.699 200.601 184.884 200.81 173.382C204.736 171.422 208.29 168.791 211.311 165.609Z" stroke="#D9613B" stroke-width="2"/>
<path fill-rule="evenodd" clip-rule="evenodd" d="M237.382 33.6186H239.267C250.028 31.987 261.054 35.4534 268.621 43.4476C274.568 49.8149 277.822 58.279 277.691 67.0372C278.814 65.688 280.198 64.585 281.757 63.7963C283.317 63.0075 285.02 62.5495 286.761 62.4504C289.346 62.3455 292.416 62.9484 294.535 65.0714C297.081 67.6204 297.327 71.3685 297.126 73.5899C296.614 79.2645 292.144 82.7505 290 84.0742C286.497 86.1931 282.332 86.8952 278.339 86.04V93.9032C278.346 96.0924 278.229 98.2802 277.989 100.456C276.434 114.636 271.122 123.718 266.651 128.259C263.064 131.911 258.798 134.809 254.098 136.785C249.397 138.761 244.357 139.776 239.267 139.772H237.382C232.287 139.762 227.244 138.737 222.541 136.756C217.837 134.775 213.566 131.876 209.97 128.225C206.374 124.575 203.525 120.243 201.584 115.478C199.644 110.714 198.65 105.609 198.66 100.456V72.9346C198.66 65.7267 198.658 58.5188 198.653 51.3108C202.404 49.1222 206.13 47.091 210.004 45.1317C218.857 40.6608 228.004 36.8139 237.382 33.6186Z" fill="#FBC0AD"/>
<path d="M286.468 62C288.634 62.1666 293.466 63.2998 295.465 66.4993C297.964 70.4986 297.602 76.5 292.966 81.4968C288.918 85.8593 284.572 86.0502 278.471 85.996C278 104.5 273.5 139.987 238.486 139.987C203.289 139.987 199 109.992 199 94.4946V53" stroke="#D9613B" stroke-width="2"/>
<path d="M212.02 96.6022C216.449 96.6022 220.039 94.0375 220.039 90.8739C220.039 87.7102 216.449 85.1455 212.02 85.1455C207.59 85.1455 204 87.7102 204 90.8739C204 94.0375 207.59 96.6022 212.02 96.6022Z" fill="#F6987A"/>
<path d="M253.264 95.4567C257.693 95.4567 261.284 92.892 261.284 89.7283C261.284 86.5647 257.693 84 253.264 84C248.835 84 245.244 86.5647 245.244 89.7283C245.244 92.892 248.835 95.4567 253.264 95.4567Z" fill="#F6987A"/>
<path fill-rule="evenodd" clip-rule="evenodd" d="M292.448 71.2151C292.181 70.6537 291.795 70.1652 291.318 69.7883C290.842 69.4114 290.289 69.1563 289.704 69.0431C288.867 68.8476 286.63 69.2747 284.214 71.2151C282.774 72.3706 281.601 73.856 280.784 75.5593C279.981 77.2101 279.885 78.5061 280.097 79.1794C280.272 79.6765 280.546 80.1279 280.902 80.5028C281.257 80.8777 281.685 81.1673 282.156 81.3515C285.202 82.604 288.949 78.8536 290.39 77.0073C292.489 74.3212 292.874 72.3157 292.448 71.2151Z" fill="#F7987A"/>
<path d="M280 75.874C280.64 73.8584 281.872 72.1076 283.518 70.8727C285.165 69.6377 287.142 68.9823 289.165 69.0004" stroke="#D9613B" stroke-width="2" stroke-linecap="round"/>
<path d="M232.729 68.7402C233.094 72.7881 233.121 76.8548 232.809 80.9063C232.57 83.2101 232.035 84.9249 231.384 85.8762C230.068 87.7982 228.325 88.1735 226.705 90.0178C225.722 91.0485 225.127 92.3302 225.005 93.6806C225.099 95.6544 226.668 97.4146 228.484 98.5276" stroke="#D9613B" stroke-width="2" stroke-linecap="round"/>
<path d="M210.11 64.1575C210.739 63.4527 211.591 62.8747 212.59 62.475C213.589 62.0753 214.705 61.8662 215.839 61.8662C216.972 61.8662 218.088 62.0753 219.087 62.475C220.087 62.8747 220.938 63.4527 221.567 64.1575" stroke="black" stroke-width="3" stroke-linecap="round"/>
<path d="M215.266 81.3423C216.847 81.3423 218.13 79.8035 218.13 77.9053C218.13 76.0071 216.847 74.4683 215.266 74.4683C213.684 74.4683 212.401 76.0071 212.401 77.9053C212.401 79.8035 213.684 81.3423 215.266 81.3423Z" fill="black"/>
<path d="M244.48 64.1575C245.109 63.4527 245.96 62.8747 246.96 62.475C247.959 62.0753 249.075 61.8662 250.208 61.8662C251.342 61.8662 252.458 62.0753 253.457 62.475C254.456 62.8747 255.308 63.4527 255.937 64.1575" stroke="black" stroke-width="3" stroke-linecap="round"/>
<path d="M249.636 81.3423C251.218 81.3423 252.5 79.8035 252.5 77.9053C252.5 76.0071 251.218 74.4683 249.636 74.4683C248.054 74.4683 246.772 76.0071 246.772 77.9053C246.772 79.8035 248.054 81.3423 249.636 81.3423Z" fill="black"/>
<path fill-rule="evenodd" clip-rule="evenodd" d="M221.572 105.401H241.038C241.08 107.037 240.859 108.667 240.389 110.193C239.919 111.72 239.209 113.112 238.301 114.288C237.393 115.463 236.305 116.398 235.104 117.036C233.902 117.675 232.61 118.004 231.305 118.004C230 118.004 228.708 117.675 227.506 117.036C226.305 116.398 225.217 115.463 224.309 114.288C223.401 113.112 222.691 111.72 222.221 110.193C221.751 108.667 221.53 107.037 221.572 105.401Z" fill="white"/>
<path fill-rule="evenodd" clip-rule="evenodd" d="M203.439 170.705C207.045 183.4 215.274 194.591 227.434 199.499C233.174 201.815 249.296 202.852 268.292 193.74C277.938 189.072 286.538 182.545 293.585 174.544C300.588 174.981 307.535 176.051 314.338 177.743C329.365 181.48 343.892 188.435 355.196 196.939C384.095 218.688 397.488 255.263 398 291H103.563C103.76 275.912 106.613 260.973 111.994 246.849C121.204 222.758 135.069 205.513 150.258 193.74C165.745 181.78 184.034 173.858 203.439 170.705Z" fill="#F3B63F"/>
<path d="M194.547 205.283L206.668 209.955C208.104 210.509 208.403 212.41 207.205 213.378L197.098 221.539C195.9 222.506 194.105 221.814 193.866 220.293L191.851 207.46C191.613 205.939 193.11 204.73 194.547 205.283Z" stroke="#FFCD6A" stroke-width="2"/>
<path d="M264.736 225.393L271.922 236.215C272.773 237.498 271.917 239.222 270.38 239.318L257.415 240.129C255.879 240.225 254.814 238.622 255.499 237.243L261.279 225.61C261.964 224.231 263.885 224.11 264.736 225.393Z" stroke="#FFCD6A" stroke-width="2"/>
<path d="M301.276 188.144L312.466 194.741C313.793 195.523 313.775 197.447 312.435 198.205L301.126 204.598C299.786 205.355 298.128 204.378 298.142 202.838L298.26 189.849C298.274 188.309 299.949 187.362 301.276 188.144Z" stroke="#FFCD6A" stroke-width="2"/>
<path d="M363.627 227.836L363.774 240.825C363.792 242.365 362.136 243.346 360.794 242.591L349.471 236.224C348.129 235.47 348.107 233.545 349.432 232.76L360.607 226.138C361.932 225.353 363.609 226.296 363.627 227.836Z" stroke="#FFCD6A" stroke-width="2"/>
<path d="M156.345 230.406L160.446 242.732C160.932 244.193 159.654 245.632 158.146 245.323L145.421 242.711C143.913 242.401 143.305 240.575 144.327 239.424L152.952 229.71C153.974 228.558 155.859 228.945 156.345 230.406Z" stroke="#FFCD6A" stroke-width="2"/>
<path fill-rule="evenodd" clip-rule="evenodd" d="M227.775 48.1074C219.877 53.1426 211.972 55.7187 206.835 56.5644C204.023 57.0248 202.35 57.0276 199.501 57V72C196.391 70.8043 192.5 68.9555 190.475 66.3224C188.899 64.1985 187.793 61.7676 187.23 59.1891C186.666 56.6105 186.656 53.9425 187.203 51.3601C182.399 48.2441 178.682 43.7814 177.387 38.3495C174.743 27.2774 182.962 15.6394 193.092 11.6776C198.121 9.78965 203.628 9.56155 208.798 11.0271C215.069 5.52591 222.786 1.91537 231.047 0.618557C242.656 -1.14438 250.431 1.08044 255.915 4.52176C260.272 7.28973 263.869 11.0897 266.385 15.5808C270.27 15.337 274.141 16.2424 277.51 18.1829C280.559 19.9719 284.283 23.4978 286.671 30.5431C287.908 34.1926 288.117 37.8355 287.98 42.9032C287.856 47.587 287.45 51.8805 287.326 56.5644C287.267 58.7372 287.267 60.8709 287.326 63.0697C285.745 63.2867 284.202 63.7247 282.745 64.3708C281.111 65.1149 279.628 66.1488 278.367 67.4217C272.772 63.0309 268.418 57.2728 265.73 50.7096C264.886 48.6023 264.229 46.4256 263.767 44.2043C261.543 42.7714 259.117 41.6752 256.569 40.9516C251.707 39.579 245.961 39.566 239.555 41.6021C234.568 43.1894 232.101 45.3492 227.775 48.1074Z" fill="#363D48"/>
<path fill-rule="evenodd" clip-rule="evenodd" d="M203.237 170.705C175.16 180.591 151.62 200.183 137.867 226.373C127.49 246.272 123.216 268.733 125.569 291H103.563C103.759 275.912 106.606 260.973 111.977 246.849C121.168 222.758 135.006 205.513 150.164 193.74C165.619 181.78 183.871 173.858 203.237 170.705Z" fill="#F29E20"/>
<path d="M268.726 194.641L268.729 194.64C278.345 189.987 286.936 183.507 294.01 175.573C300.788 176.025 307.511 177.076 314.098 178.714C328.999 182.419 343.403 189.318 354.596 197.738C382.905 219.044 396.237 254.798 396.983 290H104.581C104.888 275.374 107.71 260.904 112.929 247.205C122.073 223.285 135.828 206.191 150.871 194.53C165.994 182.852 183.811 175.057 202.729 171.837C206.52 184.397 214.823 195.487 227.061 200.426L227.387 199.617L227.061 200.426C230.126 201.663 235.762 202.499 242.976 201.901C250.216 201.301 259.115 199.252 268.726 194.641Z" stroke="#C2771E" stroke-width="2"/>
<mask id="mask1" mask-type="alpha" maskUnits="userSpaceOnUse" x="176" y="0" width="113" height="72">
<path fill-rule="evenodd" clip-rule="evenodd" d="M227.775 48.1074C219.877 53.1426 211.972 55.7187 206.835 56.5644C204.023 57.0248 202.35 57.0276 199.501 57V72C196.391 70.8043 192.5 68.9555 190.475 66.3224C188.899 64.1985 187.793 61.7676 187.23 59.1891C186.666 56.6105 186.656 53.9425 187.203 51.3601C182.399 48.2441 178.682 43.7814 177.387 38.3495C174.743 27.2774 182.962 15.6394 193.092 11.6776C198.121 9.78965 203.628 9.56155 208.798 11.0271C215.069 5.52591 222.786 1.91537 231.047 0.618557C242.656 -1.14438 250.431 1.08044 255.915 4.52176C260.272 7.28973 263.869 11.0897 266.385 15.5808C270.27 15.337 274.141 16.2424 277.51 18.1829C280.559 19.9719 284.283 23.4978 286.671 30.5431C287.908 34.1926 288.117 37.8355 287.98 42.9032C287.856 47.587 287.45 51.8805 287.326 56.5644C287.267 58.7372 287.267 60.8709 287.326 63.0697C285.745 63.2867 284.202 63.7247 282.745 64.3708C281.111 65.1149 279.628 66.1488 278.367 67.4217C272.772 63.0309 268.418 57.2728 265.73 50.7096C264.886 48.6023 264.229 46.4256 263.767 44.2043C261.543 42.7714 259.117 41.6752 256.569 40.9516C251.707 39.579 245.961 39.566 239.555 41.6021C234.568 43.1894 232.101 45.3492 227.775 48.1074Z" fill="black"/>
</mask>
<g mask="url(#mask1)">
<path d="M289.162 65.3031C289.11 57.3051 287.019 50.5345 282.225 45.7096C277.74 41.198 272.933 40.4472 265.571 37.8748C255.378 34.3165 246.948 28.695 244.748 26.1226C238.982 19.365 236.904 10.2897 237.811 0" stroke="#525D6F" stroke-width="2" stroke-linecap="round"/>
<path d="M282.287 100.819C277.973 97.6681 274.719 93.8345 273.163 89.2213C271.003 82.8104 273.313 77.4627 272.46 71.8186C271.699 66.7995 269.246 61.6772 265.445 56.9996C259.536 49.7254 253.275 48.3143 245.088 42.8184C239.812 39.2089 235.084 34.8695 231.051 29.9323C227.01 25.1001 224.693 21.1827 219.825 17.0462C215.235 13.1867 210.012 10.1337 204.382 8.01953" stroke="#525D6F" stroke-width="2" stroke-linecap="round"/>
<path d="M237.606 46.9723C233.495 43.6253 229.732 39.8625 226.373 35.742C223.977 32.7759 221.041 28.8651 215.838 25.8329C212.192 23.6446 208.119 22.2918 203.903 21.8693C198.049 21.3474 193.927 22.9262 189.154 24.5117C184.772 25.965 179.85 27.4382 177.219 27.8147C168.337 29.0765 159.358 26.7776 150.535 21.8693" stroke="#525D6F" stroke-width="2" stroke-linecap="round"/>
<path d="M174.595 44.1296C178.32 39.8384 183.273 36.6223 188.879 34.8551C195.83 32.6811 203.351 32.6811 210.302 34.8551C214.613 36.183 218.566 38.3618 221.894 41.2435C225.221 44.1252 227.845 47.6423 229.587 51.5553" stroke="#525D6F" stroke-width="2" stroke-linecap="round"/>
<path d="M214.693 56.1377C213.735 53.4989 212.266 51.0888 210.376 49.0539C208.485 47.0191 206.213 45.402 203.698 44.3014C199.548 42.4546 193.665 41.4359 187.883 43.6442C184.994 44.7529 182.402 46.5552 180.323 48.9018" stroke="#525D6F" stroke-width="2" stroke-linecap="round"/>
<path fill-rule="evenodd" clip-rule="evenodd" d="M293.59 70.9554C293.323 70.3939 292.936 69.9054 292.46 69.5285C291.984 69.1516 291.431 68.8965 290.845 68.7833C290.008 68.5878 287.771 69.015 285.356 70.9554C283.916 72.1108 282.743 73.5962 281.925 75.2995C281.122 76.9503 281.026 78.2463 281.239 78.9196C281.414 79.4168 281.688 79.8682 282.043 80.2431C282.398 80.618 282.826 80.9075 283.298 81.0917C286.344 82.3443 290.091 78.5938 291.531 76.7476C293.631 74.0614 294.015 72.0559 293.59 70.9554Z" fill="#FCAB92"/>
<path d="M281.143 75.6143C281.783 73.5987 283.014 71.8478 284.661 70.6129C286.307 69.378 288.284 68.7225 290.308 68.7406" stroke="#D9613B" stroke-width="2" stroke-linecap="round"/>
<path d="M198.5 57.0001V70.519C195.745 69.3532 192.848 67.7637 191.272 65.7196C189.783 63.7108 188.739 61.4127 188.206 58.9756C187.672 56.5354 187.663 54.0108 188.18 51.5672L188.322 50.8951L187.746 50.5213C183.102 47.5085 179.581 43.2413 178.359 38.1176V38.1173C177.112 32.8963 178.415 27.4911 181.297 22.877C184.179 18.2615 188.599 14.5102 193.449 12.6115C198.277 10.8008 203.562 10.5826 208.524 11.9893L209.047 12.1376L209.456 11.7789C215.584 6.4035 223.125 2.87481 231.199 1.60696C242.595 -0.123285 250.122 2.06869 255.38 5.36739C259.597 8.04666 263.077 11.7241 265.512 16.0696L265.819 16.6183L266.447 16.5789C270.135 16.3475 273.809 17.2067 277.007 19.0477C279.845 20.7143 283.412 24.0468 285.723 30.8642C286.902 34.3418 287.116 37.8403 286.979 42.8763V42.8768C286.918 45.1999 286.786 47.4284 286.654 49.6749L286.653 49.6822C286.521 51.9217 286.388 54.1794 286.325 56.5374C286.274 58.4394 286.267 60.3119 286.305 62.2229C284.94 62.4797 283.609 62.8935 282.339 63.4567L282.33 63.4608C280.86 64.1299 279.505 65.0187 278.31 66.0946C273.175 61.884 269.169 56.4697 266.656 50.3348C265.834 48.2828 265.195 46.1634 264.745 44.0008L264.66 43.5906L264.308 43.3638C262 41.8773 259.484 40.7403 256.841 39.9897L256.84 39.9893C251.774 38.5592 245.828 38.5588 239.251 40.6492V40.6493C235.228 41.9296 232.738 43.6018 229.827 45.5561C229.011 46.1041 228.162 46.6743 227.236 47.2643C219.453 52.2267 211.675 54.754 206.671 55.5778C203.948 56.0237 202.344 56.0276 199.51 56.0001L198.5 55.9904V57.0001Z" stroke="black" stroke-width="2"/>
</g>
</g>
</svg>
